<svg width="318" height="121" viewBox="0 0 318 121" fill="none" xmlns="http://www.w3.org/2000/svg">
<path d="M0.0290214 101L8.28234 61.9181H21.3299L15.1399 91.0475H31.8893L29.8259 101H0.0290214ZM32.3278 101L40.5811 61.9181H53.6286L45.3753 101H32.3278ZM50.2847 101L58.5381 61.9181H69.5223L78.5645 79.9419L82.3877 61.9181H95.4353L87.1819 101H76.0764L67.0948 83.0369L63.3323 101H50.2847ZM92.125 101L100.378 61.9181H113.426L110.816 74.2981L123.621 61.9181H138.368L121.436 78.0606L131.207 101H117.37L111.666 86.3139L107.418 90.2586L105.173 101H92.125ZM145.767 101.607C143.137 101.607 140.629 101.384 138.242 100.939C135.855 100.494 133.893 99.8672 132.355 99.058L134.54 88.8628C136.239 89.7528 138.161 90.4811 140.305 91.0475C142.49 91.6139 144.533 91.8971 146.434 91.8971C148.053 91.8971 149.327 91.7352 150.258 91.4116C151.229 91.0879 151.795 90.4811 151.957 89.591C152.159 88.5796 151.653 87.8513 150.44 87.4063C149.226 86.9208 147.446 86.2533 145.099 85.4037C142.47 84.4327 140.467 83.2392 139.091 81.8232C137.716 80.3667 137.028 78.5057 137.028 76.24C137.028 75.3095 137.149 74.3385 137.392 73.3271C138.282 69.1195 140.265 66.065 143.339 64.1635C146.455 62.262 150.905 61.3113 156.69 61.3113C158.066 61.3113 159.502 61.4124 160.999 61.6147C162.536 61.7765 163.993 61.999 165.368 62.2822C166.744 62.525 167.897 62.8082 168.828 63.1318L166.643 73.3878C164.782 72.5786 163.022 72.0122 161.363 71.6886C159.704 71.3245 158.167 71.1424 156.751 71.1424C155.74 71.1424 154.769 71.2031 153.838 71.3245C152.908 71.4054 152.139 71.6279 151.532 71.992C150.966 72.3157 150.682 72.8416 150.682 73.5699C150.682 74.2172 151.148 74.7229 152.078 75.087C153.049 75.4107 154.566 75.8759 156.63 76.4828C160.069 77.4942 162.435 78.8496 163.73 80.5488C165.065 82.248 165.733 84.1697 165.733 86.3139C165.733 87.3658 165.611 88.438 165.368 89.5303C164.6 93.1715 162.617 96.1046 159.421 98.3298C156.266 100.515 151.714 101.607 145.767 101.607Z" fill="white"/>
<path d="M97 120.24L100.744 104.741L102.123 99H112.172L97 120.24Z" fill="white"/>
<path d="M47.472 9.608C48.7733 9.58666 49.8293 9.77866 50.64 10.184C51.472 10.5893 52.1227 11.0693 52.592 11.624C53.0613 12.1787 53.3813 12.7547 53.552 13.352C53.7227 13.928 53.808 14.376 53.808 14.696C53.808 15.7627 53.552 16.872 53.04 18.024C52.528 19.1547 51.8773 20.2747 51.088 21.384C50.2987 22.4933 49.4133 23.5707 48.432 24.616C47.472 25.64 46.5333 26.568 45.616 27.4C44.72 28.2107 43.8987 28.904 43.152 29.48C42.4267 30.0347 41.8933 30.408 41.552 30.6C40.592 31.1333 39.6853 31.3893 38.832 31.368C38 31.3253 37.296 31.1547 36.72 30.856C36.1653 30.5573 35.8027 30.216 35.632 29.832C35.4827 29.4267 35.6213 29.1173 36.048 28.904C36.7307 28.5627 37.5307 28.0827 38.448 27.464C39.3653 26.824 40.304 26.1093 41.264 25.32C42.2453 24.5307 43.216 23.688 44.176 22.792C45.136 21.8747 46 20.968 46.768 20.072C47.536 19.176 48.176 18.3227 48.688 17.512C49.2 16.68 49.4987 15.9547 49.584 15.336C49.6693 14.7173 49.4987 14.2373 49.072 13.896C48.6453 13.5333 47.8773 13.3627 46.768 13.384C44.9333 13.4053 43.184 13.6933 41.52 14.248C39.8773 14.7813 38.3413 15.4853 36.912 16.36C35.504 17.2133 34.224 18.184 33.072 19.272C31.9413 20.3387 30.96 21.416 30.128 22.504C29.3173 23.592 28.6773 24.6373 28.208 25.64C27.76 26.6427 27.5147 27.496 27.472 28.2C27.4293 29.16 27.536 30.056 27.792 30.888C28.0693 31.72 28.4427 32.52 28.912 33.288C29.3813 34.0347 29.9147 34.76 30.512 35.464C31.1307 36.1467 31.7493 36.8293 32.368 37.512C33.008 38.1947 33.6053 38.888 34.16 39.592C34.736 40.2747 35.2267 40.9893 35.632 41.736C36.0373 42.4613 36.3147 43.2293 36.464 44.04C36.6347 44.8507 36.624 45.7147 36.432 46.632C36.0053 48.552 35.248 50.312 34.16 51.912C33.0933 53.512 31.824 54.888 30.352 56.04C28.9013 57.2133 27.3333 58.1413 25.648 58.824C23.9627 59.5067 22.32 59.912 20.72 60.04C19.2267 60.1467 17.808 60.0507 16.464 59.752C15.12 59.4747 13.9467 59.0053 12.944 58.344C11.9627 57.704 11.1947 56.872 10.64 55.848C10.0853 54.824 9.86133 53.6293 9.968 52.264C10.0747 50.8987 10.4053 49.6827 10.96 48.616C11.536 47.5493 12.2293 46.632 13.04 45.864C13.872 45.0747 14.7573 44.4133 15.696 43.88C16.656 43.3253 17.5627 42.8773 18.416 42.536C19.2907 42.1733 20.0693 41.9067 20.752 41.736C21.456 41.5653 21.9467 41.4587 22.224 41.416C22.6507 41.352 23.056 41.4267 23.44 41.64C23.824 41.8533 24.144 42.1093 24.4 42.408C24.656 42.7067 24.8053 43.0053 24.848 43.304C24.912 43.5813 24.8267 43.752 24.592 43.816C22.5227 44.3493 20.816 45.0213 19.472 45.832C18.1493 46.6427 17.104 47.4747 16.336 48.328C15.568 49.1813 15.0453 49.992 14.768 50.76C14.512 51.528 14.4053 52.1253 14.448 52.552C14.5333 53.32 14.7467 53.96 15.088 54.472C15.4293 54.984 15.8667 55.3787 16.4 55.656C16.9547 55.9333 17.584 56.104 18.288 56.168C18.992 56.232 19.728 56.2 20.496 56.072C21.712 55.8587 23.0027 55.4213 24.368 54.76C25.7333 54.0987 26.9813 53.288 28.112 52.328C29.264 51.368 30.2133 50.3013 30.96 49.128C31.7067 47.9547 32.08 46.7493 32.08 45.512C32.08 44.7227 31.856 43.944 31.408 43.176C30.96 42.3867 30.3947 41.608 29.712 40.84C29.0507 40.0507 28.3253 39.24 27.536 38.408C26.7467 37.576 26 36.7013 25.296 35.784C24.6133 34.8453 24.0373 33.864 23.568 32.84C23.0987 31.7947 22.8533 30.6747 22.832 29.48C22.8107 28.5413 23.024 27.4107 23.472 26.088C23.9413 24.7653 24.6347 23.3787 25.552 21.928C26.4693 20.4773 27.6213 19.0373 29.008 17.608C30.3947 16.1573 32.0053 14.856 33.84 13.704C35.6747 12.5307 37.7227 11.5707 39.984 10.824C42.2667 10.0773 44.7627 9.672 47.472 9.608ZM55.5193 36.616C55.9246 36.3387 56.4259 36.2213 57.0233 36.264C57.6206 36.2853 58.1646 36.424 58.6553 36.68C59.1459 36.9147 59.5193 37.2347 59.7753 37.64C60.0313 38.0453 60.0313 38.4613 59.7753 38.888C59.6899 39.016 59.5406 39.2507 59.3273 39.592C59.1139 39.9333 58.8579 40.328 58.5593 40.776C58.2819 41.224 57.9939 41.704 57.6953 42.216C57.4179 42.7067 57.1726 43.1653 56.9593 43.592C56.7673 43.9973 56.6286 44.3493 56.5433 44.648C56.4579 44.9253 56.4793 45.0853 56.6073 45.128C57.0553 45.256 57.5779 45.224 58.1753 45.032C58.7726 44.84 59.3806 44.5413 59.9993 44.136C60.6393 43.7093 61.2579 43.208 61.8553 42.632C62.4526 42.0347 62.9753 41.4053 63.4233 40.744C63.6153 40.4667 63.8393 40.36 64.0953 40.424C64.3726 40.4667 64.6073 40.616 64.7993 40.872C64.9913 41.1067 65.1193 41.416 65.1833 41.8C65.2473 42.184 65.1726 42.568 64.9593 42.952C64.6393 43.528 64.1166 44.1787 63.3913 44.904C62.6873 45.608 61.8659 46.248 60.9273 46.824C60.0099 47.3787 59.0073 47.7947 57.9193 48.072C56.8526 48.328 55.8073 48.2853 54.7833 47.944C54.3353 47.7947 53.9299 47.5707 53.5673 47.272C52.9699 47.9547 52.3299 48.616 51.6473 49.256C50.9859 49.896 50.3033 50.472 49.5993 50.984C48.8953 51.496 48.1699 51.9227 47.4233 52.264C46.6766 52.584 45.9193 52.7867 45.1513 52.872C44.8953 52.8933 44.5646 52.9147 44.1593 52.936C43.7753 52.936 43.3593 52.8933 42.9113 52.808C42.4633 52.7013 42.0153 52.5307 41.5673 52.296C41.1406 52.0613 40.7566 51.72 40.4153 51.272C40.0953 50.824 39.8499 50.248 39.6792 49.544C39.5086 48.8187 39.4659 47.9227 39.5512 46.856C39.6152 45.9813 39.8606 44.9893 40.2873 43.88C40.7139 42.7493 41.2793 41.5973 41.9833 40.424C42.6873 39.2507 43.4979 38.0987 44.4153 36.968C45.3539 35.8373 46.3673 34.824 47.4553 33.928C48.5433 33.032 49.6846 32.296 50.8793 31.72C52.0953 31.144 53.3326 30.824 54.5913 30.76C55.4659 30.7173 56.2126 30.7707 56.8313 30.92C57.4713 31.0693 57.9939 31.272 58.3993 31.528C58.8046 31.784 59.1033 32.0827 59.2953 32.424C59.5086 32.7653 59.6259 33.1067 59.6473 33.448C59.6686 33.832 59.6046 34.1947 59.4553 34.536C59.3273 34.8773 59.1566 35.1653 58.9433 35.4C58.7299 35.6347 58.5059 35.784 58.2713 35.848C58.0579 35.912 57.8873 35.8587 57.7593 35.688C57.3326 35.112 56.7886 34.7387 56.1273 34.568C55.4659 34.376 54.7939 34.3653 54.1113 34.536C52.9379 34.8347 51.8499 35.3147 50.8473 35.976C49.8659 36.616 48.9699 37.352 48.1593 38.184C47.3699 39.016 46.6659 39.8907 46.0473 40.808C45.4286 41.7253 44.9059 42.6107 44.4793 43.464C44.0739 44.3173 43.7539 45.0853 43.5193 45.768C43.2846 46.4507 43.1566 46.9733 43.1353 47.336C43.0926 47.848 43.1353 48.264 43.2633 48.584C43.4126 48.904 43.5939 49.16 43.8073 49.352C44.0419 49.5227 44.2873 49.64 44.5433 49.704C44.7993 49.768 45.0233 49.8 45.2153 49.8C45.7059 49.7787 46.2393 49.608 46.8153 49.288C47.4126 48.9467 48.0099 48.5093 48.6073 47.976C49.2259 47.4213 49.8446 46.8027 50.4633 46.12C51.0819 45.4373 51.6793 44.744 52.2553 44.04C52.2126 43.3787 52.2553 42.6853 52.3833 41.96C52.5326 41.2347 52.7459 40.5413 53.0233 39.88C53.3219 39.1973 53.6739 38.5787 54.0793 38.024C54.5059 37.448 54.9859 36.9787 55.5193 36.616ZM92.959 33.832C91.7003 36.0933 90.527 38.3973 89.439 40.744C88.351 43.0907 87.231 45.4907 86.079 47.944C85.823 48.4987 85.6737 48.904 85.631 49.16C85.6097 49.416 85.6523 49.576 85.759 49.64C85.887 49.6827 86.0577 49.6507 86.271 49.544C86.5057 49.416 86.7403 49.256 86.975 49.064C87.5297 48.6373 88.1697 48.104 88.895 47.464C89.6417 46.8027 90.3777 46.12 91.103 45.416C91.8283 44.712 92.511 44.0187 93.151 43.336C93.791 42.632 94.303 42.0027 94.687 41.448C94.943 41.0853 95.2097 40.8933 95.487 40.872C95.7643 40.8507 95.9883 40.9573 96.159 41.192C96.3297 41.4053 96.4257 41.736 96.447 42.184C96.4683 42.632 96.351 43.1333 96.095 43.688C96.0097 43.8587 95.775 44.232 95.391 44.808C95.007 45.3627 94.5057 46.0133 93.887 46.76C93.2683 47.5067 92.5643 48.2853 91.775 49.096C91.007 49.8853 90.1857 50.5893 89.311 51.208C88.4577 51.8267 87.583 52.3067 86.687 52.648C85.791 52.9893 84.9377 53.064 84.127 52.872C82.9963 52.616 82.2923 51.9973 82.015 51.016C81.759 50.0133 81.8443 48.808 82.271 47.4C82.7403 45.864 83.2843 44.4347 83.903 43.112C84.5217 41.7893 85.1083 40.616 85.663 39.592C86.2177 38.568 86.7083 37.7147 87.135 37.032C87.5617 36.328 87.839 35.848 87.967 35.592C88.0737 35.3787 88.0843 35.2613 87.999 35.24C87.935 35.2187 87.8283 35.2507 87.679 35.336C87.5297 35.4 87.3697 35.496 87.199 35.624C87.0283 35.752 86.9003 35.848 86.815 35.912C86.2817 36.2747 85.6203 36.7973 84.831 37.48C84.063 38.1413 83.2417 38.8987 82.367 39.752C81.5137 40.584 80.6497 41.4907 79.775 42.472C78.9003 43.4533 78.0897 44.4453 77.343 45.448C76.6177 46.4293 75.999 47.4 75.487 48.36C74.9963 49.32 74.687 50.1947 74.559 50.984C74.5803 50.9413 74.591 50.8667 74.591 50.76C74.591 50.632 74.6017 50.504 74.623 50.376C74.431 50.9947 74.3563 51.5067 74.399 51.912C74.399 52.0187 74.367 52.136 74.303 52.264C74.2603 52.392 74.175 52.5093 74.047 52.616C73.919 52.7227 73.7377 52.808 73.503 52.872C73.2897 52.9147 73.023 52.9147 72.703 52.872C72.3403 52.808 72.0417 52.6587 71.807 52.424C71.5723 52.168 71.4017 51.8693 71.295 51.528C71.1883 51.1867 71.1243 50.824 71.103 50.44C71.103 50.056 71.1457 49.6933 71.231 49.352C71.679 47.496 72.2123 45.8 72.831 44.264C73.471 42.7067 74.0897 41.3413 74.687 40.168C75.3057 38.9733 75.8497 37.992 76.319 37.224C76.7883 36.456 77.087 35.9227 77.215 35.624C77.3217 35.4107 77.3323 35.2933 77.247 35.272C77.183 35.2507 77.0763 35.2827 76.927 35.368C76.7777 35.432 76.6177 35.528 76.447 35.656C76.2763 35.784 76.1483 35.88 76.063 35.944C75.5723 36.2853 74.9857 36.744 74.303 37.32C73.6203 37.8747 72.895 38.5253 72.127 39.272C71.359 39.9973 70.5803 40.7973 69.791 41.672C69.0017 42.5253 68.2443 43.4 67.519 44.296C66.815 45.192 66.175 46.088 65.599 46.984C65.023 47.8587 64.575 48.7013 64.255 49.512C64.2123 49.6827 64.1803 49.8533 64.159 50.024C64.159 50.1947 64.1483 50.3547 64.127 50.504C64.0203 51.528 63.7537 52.2213 63.327 52.584C62.9003 52.9467 62.431 52.9253 61.919 52.52C61.5563 52.2213 61.2577 51.7947 61.023 51.24C60.767 50.6853 60.6603 49.864 60.703 48.776C60.7243 48.0933 60.8843 47.2827 61.183 46.344C61.4603 45.384 61.8123 44.3707 62.239 43.304C62.687 42.216 63.1777 41.1173 63.711 40.008C64.2443 38.8987 64.7777 37.8533 65.311 36.872C65.8443 35.8907 66.3457 35.016 66.815 34.248C67.3057 33.4587 67.7003 32.8613 67.999 32.456C68.4897 31.7947 69.087 31.3253 69.791 31.048C70.5163 30.7707 71.167 30.6533 71.743 30.696C72.3403 30.7173 72.7777 30.888 73.055 31.208C73.3323 31.5067 73.279 31.9227 72.895 32.456C72.1483 33.5013 71.4657 34.4933 70.847 35.432C70.2283 36.3493 69.663 37.2347 69.151 38.088C69.9617 37.128 70.8257 36.1893 71.743 35.272C72.6603 34.3547 73.599 33.5547 74.559 32.872C75.5403 32.168 76.543 31.624 77.567 31.24C78.591 30.8347 79.615 30.6747 80.639 30.76C81.2577 30.8027 81.7163 30.9413 82.015 31.176C82.3137 31.4107 82.5057 31.6773 82.591 31.976C82.6763 32.2747 82.6657 32.5947 82.559 32.936C82.4737 33.2773 82.3563 33.5867 82.207 33.864C82.079 34.0773 81.823 34.536 81.439 35.24C81.0763 35.9227 80.639 36.7653 80.127 37.768C80.9163 36.8293 81.759 35.9227 82.655 35.048C83.5723 34.152 84.511 33.3733 85.471 32.712C86.431 32.0507 87.4017 31.5387 88.383 31.176C89.3857 30.792 90.3883 30.6427 91.391 30.728C92.0097 30.7707 92.4683 30.9093 92.767 31.144C93.0657 31.3787 93.2577 31.6453 93.343 31.944C93.4283 32.2427 93.4177 32.5627 93.311 32.904C93.2257 33.2453 93.1083 33.5547 92.959 33.832ZM109.415 30.312C110.141 30.312 110.706 30.4613 111.111 30.76C111.517 31.0587 111.815 31.4107 112.007 31.816C112.199 32.2 112.295 32.6053 112.295 33.032C112.295 33.4373 112.263 33.7573 112.199 33.992C112.05 34.4827 111.751 35.1973 111.303 36.136C110.877 37.0533 110.237 37.9707 109.383 38.888C108.914 39.3787 108.338 39.9547 107.655 40.616C106.994 41.256 106.269 41.8853 105.479 42.504C104.69 43.1227 103.879 43.688 103.047 44.2C102.215 44.6907 101.415 45.0427 100.647 45.256C99.9859 45.448 99.4633 45.48 99.0793 45.352C98.7166 45.2027 98.4606 45.0107 98.3113 44.776C98.1619 44.52 98.1086 44.2747 98.1513 44.04C98.2153 43.784 98.3433 43.624 98.5353 43.56C99.1753 43.368 99.8259 43.0907 100.487 42.728C101.149 42.344 101.789 41.928 102.407 41.48C103.047 41.032 103.645 40.5627 104.199 40.072C104.754 39.5813 105.245 39.1227 105.671 38.696C106.119 38.2693 106.482 37.9173 106.759 37.64C107.037 37.3413 107.207 37.1493 107.271 37.064C107.613 36.616 107.922 36.1787 108.199 35.752C108.498 35.3253 108.701 34.952 108.807 34.632C108.914 34.2907 108.893 34.0347 108.743 33.864C108.615 33.6933 108.317 33.64 107.847 33.704C107.207 33.8107 106.503 34.1307 105.735 34.664C104.967 35.176 104.178 35.816 103.367 36.584C102.578 37.352 101.799 38.216 101.031 39.176C100.285 40.136 99.6019 41.1067 98.9833 42.088C98.3859 43.048 97.8953 43.9973 97.5113 44.936C97.1273 45.8533 96.9033 46.664 96.8393 47.368C96.7753 48.072 96.9033 48.6373 97.2233 49.064C97.5433 49.4693 98.1193 49.6507 98.9513 49.608C99.8899 49.5653 100.85 49.32 101.831 48.872C102.834 48.4027 103.815 47.8267 104.775 47.144C105.757 46.4613 106.685 45.7253 107.559 44.936C108.434 44.1467 109.223 43.4 109.927 42.696C110.653 41.992 111.261 41.384 111.751 40.872C112.242 40.36 112.583 40.04 112.775 39.912C113.053 39.7413 113.277 39.72 113.447 39.848C113.618 39.976 113.746 40.168 113.831 40.424C113.938 40.68 113.991 40.9573 113.991 41.256C114.013 41.5547 114.013 41.7893 113.991 41.96C113.97 42.088 113.746 42.4293 113.319 42.984C112.914 43.5387 112.349 44.2107 111.623 45C110.898 45.768 110.045 46.6 109.063 47.496C108.103 48.3707 107.058 49.2027 105.927 49.992C104.797 50.76 103.602 51.432 102.343 52.008C101.085 52.5627 99.8259 52.8933 98.5673 53C97.3726 53.1067 96.3806 53 95.5913 52.68C94.8233 52.36 94.2153 51.9227 93.7673 51.368C93.3193 50.8133 93.0099 50.1947 92.8392 49.512C92.6686 48.808 92.6046 48.136 92.6472 47.496C92.6899 46.6213 92.9246 45.5973 93.3513 44.424C93.7779 43.2293 94.3646 42.0027 95.1113 40.744C95.8579 39.464 96.7326 38.2053 97.7352 36.968C98.7593 35.7093 99.8793 34.5893 101.095 33.608C102.333 32.6267 103.645 31.8373 105.031 31.24C106.439 30.6213 107.901 30.312 109.415 30.312ZM142.256 55.656C142.725 55.8267 143.109 56.0827 143.408 56.424C143.706 56.7867 143.93 57.1707 144.08 57.576C144.229 58.0027 144.304 58.4187 144.304 58.824C144.304 59.2507 144.24 59.6133 144.112 59.912C144.005 60.2107 143.834 60.4133 143.6 60.52C143.386 60.648 143.12 60.616 142.8 60.424C142.053 59.9973 141.04 59.72 139.76 59.592C138.48 59.464 137.093 59.432 135.6 59.496C134.106 59.56 132.57 59.6773 130.992 59.848C129.434 60.04 127.984 60.2427 126.64 60.456C125.296 60.6693 124.133 60.872 123.152 61.064C122.17 61.256 121.53 61.3733 121.232 61.416C120.784 61.48 120.538 61.3627 120.495 61.064C120.453 60.7653 120.527 60.4133 120.72 60.008C120.933 59.6027 121.221 59.1973 121.584 58.792C121.946 58.408 122.309 58.1627 122.672 58.056C126.234 56.9467 129.349 56.168 132.016 55.72C131.568 55.4427 131.194 55.08 130.896 54.632C130.597 54.2053 130.512 53.8 130.64 53.416C130.896 52.584 131.344 51.56 131.984 50.344C132.645 49.1067 133.434 47.7413 134.352 46.248C135.29 44.7333 136.336 43.1333 137.488 41.448C138.64 39.7627 139.845 38.0453 141.104 36.296C142.384 34.5467 143.674 32.7973 144.976 31.048C146.298 29.2987 147.578 27.624 148.816 26.024C150.074 24.424 151.269 22.9307 152.4 21.544C153.552 20.136 154.576 18.9093 155.472 17.864C156.389 16.8187 157.146 15.9867 157.744 15.368C158.362 14.728 158.778 14.3653 158.992 14.28C159.013 14.28 159.024 14.28 159.024 14.28C159.045 14.2587 159.066 14.248 159.088 14.248C155.824 14.696 152.282 15.4427 148.464 16.488C144.645 17.512 140.581 18.984 136.272 20.904C135.632 21.1813 135.162 21.4693 134.864 21.768C134.565 22.0667 134.341 22.3333 134.192 22.568C134.042 22.8027 133.946 23.0053 133.904 23.176C133.861 23.3253 133.776 23.4 133.648 23.4C133.072 23.4 132.634 23.144 132.336 22.632C132.058 22.12 131.93 21.5227 131.952 20.84C131.994 20.136 132.197 19.4427 132.56 18.76C132.944 18.0773 133.509 17.5653 134.256 17.224C137.669 15.6453 141.05 14.3867 144.4 13.448C147.77 12.5093 151.002 11.8053 154.096 11.336C157.21 10.8453 160.122 10.5467 162.832 10.44C165.562 10.312 167.994 10.28 170.128 10.344C172.282 10.408 174.085 10.5253 175.536 10.696C177.008 10.8453 178.021 10.952 178.576 11.016C179.493 11.1227 180.154 11.3893 180.56 11.816C180.965 12.2427 181.178 12.68 181.2 13.128C181.221 13.5547 181.072 13.928 180.752 14.248C180.453 14.5467 180.058 14.6427 179.568 14.536C178.949 14.408 178.064 14.2587 176.912 14.088C175.781 13.9173 174.405 13.7787 172.784 13.672C171.184 13.5653 169.338 13.5333 167.248 13.576C165.178 13.5973 162.917 13.7573 160.464 14.056C160.976 14.0773 161.477 14.1627 161.968 14.312C162.458 14.44 162.864 14.6107 163.184 14.824C163.504 15.016 163.696 15.2293 163.76 15.464C163.845 15.6987 163.717 15.912 163.376 16.104C163.12 16.2533 162.661 16.68 162 17.384C161.36 18.0667 160.56 18.9627 159.6 20.072C158.661 21.16 157.605 22.4187 156.432 23.848C155.28 25.2773 154.053 26.8133 152.752 28.456C151.472 30.0773 150.16 31.7733 148.816 33.544C147.472 35.2933 146.16 37.0427 144.88 38.792C143.6 40.5413 142.373 42.248 141.2 43.912C140.048 45.576 139.002 47.1333 138.064 48.584C137.125 50.0133 136.325 51.304 135.664 52.456C135.024 53.5867 134.586 54.5147 134.352 55.24C134.309 55.3253 134.288 55.3787 134.288 55.4C136.293 55.144 137.946 55.0587 139.248 55.144C140.57 55.2293 141.573 55.4 142.256 55.656ZM180.303 33.832C179.044 36.0933 177.871 38.3973 176.783 40.744C175.695 43.0907 174.575 45.4907 173.423 47.944C173.167 48.4987 173.017 48.904 172.975 49.16C172.953 49.416 172.996 49.576 173.103 49.64C173.231 49.6827 173.401 49.6507 173.615 49.544C173.849 49.416 174.084 49.256 174.319 49.064C174.873 48.6373 175.513 48.104 176.239 47.464C176.985 46.8027 177.721 46.12 178.447 45.416C179.172 44.712 179.855 44.0187 180.495 43.336C181.135 42.632 181.647 42.0027 182.031 41.448C182.287 41.0853 182.553 40.8933 182.831 40.872C183.108 40.8507 183.332 40.9573 183.503 41.192C183.673 41.4053 183.769 41.736 183.791 42.184C183.812 42.632 183.695 43.1333 183.439 43.688C183.353 43.8587 183.119 44.232 182.735 44.808C182.351 45.3627 181.849 46.0133 181.231 46.76C180.612 47.5067 179.908 48.2853 179.119 49.096C178.351 49.8853 177.529 50.5893 176.655 51.208C175.801 51.8267 174.927 52.3067 174.031 52.648C173.135 52.9893 172.281 53.064 171.471 52.872C170.34 52.616 169.636 51.9973 169.359 51.016C169.103 50.0133 169.188 48.808 169.615 47.4C170.084 45.864 170.628 44.4347 171.247 43.112C171.865 41.7893 172.452 40.616 173.007 39.592C173.561 38.568 174.052 37.7147 174.479 37.032C174.905 36.328 175.183 35.848 175.311 35.592C175.417 35.3787 175.428 35.2613 175.343 35.24C175.279 35.2187 175.172 35.2507 175.023 35.336C174.873 35.4 174.713 35.496 174.543 35.624C174.372 35.752 174.244 35.848 174.159 35.912C173.625 36.2747 172.964 36.7973 172.175 37.48C171.407 38.1413 170.585 38.8987 169.711 39.752C168.857 40.584 167.993 41.4907 167.119 42.472C166.244 43.4533 165.433 44.4453 164.687 45.448C163.961 46.4293 163.343 47.4 162.831 48.36C162.34 49.32 162.031 50.1947 161.903 50.984C161.924 50.9413 161.935 50.8667 161.935 50.76C161.935 50.632 161.945 50.504 161.967 50.376C161.775 50.9947 161.7 51.5067 161.743 51.912C161.743 52.0187 161.711 52.136 161.647 52.264C161.604 52.392 161.519 52.5093 161.391 52.616C161.263 52.7227 161.081 52.808 160.847 52.872C160.633 52.9147 160.367 52.9147 160.047 52.872C159.684 52.808 159.385 52.6587 159.151 52.424C158.916 52.168 158.745 51.8693 158.639 51.528C158.532 51.1867 158.468 50.824 158.447 50.44C158.447 50.056 158.489 49.6933 158.575 49.352C159.023 47.496 159.556 45.8 160.175 44.264C160.815 42.7067 161.433 41.3413 162.031 40.168C162.649 38.9733 163.193 37.992 163.663 37.224C164.132 36.456 164.431 35.9227 164.559 35.624C164.665 35.4107 164.676 35.2933 164.591 35.272C164.527 35.2507 164.42 35.2827 164.271 35.368C164.121 35.432 163.961 35.528 163.791 35.656C163.62 35.784 163.492 35.88 163.407 35.944C162.916 36.2853 162.329 36.744 161.647 37.32C160.964 37.8747 160.239 38.5253 159.471 39.272C158.703 39.9973 157.924 40.7973 157.135 41.672C156.345 42.5253 155.588 43.4 154.863 44.296C154.159 45.192 153.519 46.088 152.943 46.984C152.367 47.8587 151.919 48.7013 151.599 49.512C151.556 49.6827 151.524 49.8533 151.503 50.024C151.503 50.1947 151.492 50.3547 151.471 50.504C151.364 51.528 151.097 52.2213 150.671 52.584C150.244 52.9467 149.775 52.9253 149.263 52.52C148.9 52.2213 148.601 51.7947 148.367 51.24C148.111 50.6853 148.004 49.864 148.047 48.776C148.068 48.0933 148.228 47.2827 148.527 46.344C148.804 45.384 149.156 44.3707 149.583 43.304C150.031 42.216 150.521 41.1173 151.055 40.008C151.588 38.8987 152.121 37.8533 152.655 36.872C153.188 35.8907 153.689 35.016 154.159 34.248C154.649 33.4587 155.044 32.8613 155.343 32.456C155.833 31.7947 156.431 31.3253 157.135 31.048C157.86 30.7707 158.511 30.6533 159.087 30.696C159.684 30.7173 160.121 30.888 160.399 31.208C160.676 31.5067 160.623 31.9227 160.239 32.456C159.492 33.5013 158.809 34.4933 158.191 35.432C157.572 36.3493 157.007 37.2347 156.495 38.088C157.305 37.128 158.169 36.1893 159.087 35.272C160.004 34.3547 160.943 33.5547 161.903 32.872C162.884 32.168 163.887 31.624 164.911 31.24C165.935 30.8347 166.959 30.6747 167.983 30.76C168.601 30.8027 169.06 30.9413 169.359 31.176C169.657 31.4107 169.849 31.6773 169.935 31.976C170.02 32.2747 170.009 32.5947 169.903 32.936C169.817 33.2773 169.7 33.5867 169.551 33.864C169.423 34.0773 169.167 34.536 168.783 35.24C168.42 35.9227 167.983 36.7653 167.471 37.768C168.26 36.8293 169.103 35.9227 169.999 35.048C170.916 34.152 171.855 33.3733 172.815 32.712C173.775 32.0507 174.745 31.5387 175.727 31.176C176.729 30.792 177.732 30.6427 178.735 30.728C179.353 30.7707 179.812 30.9093 180.111 31.144C180.409 31.3787 180.601 31.6453 180.687 31.944C180.772 32.2427 180.761 32.5627 180.655 32.904C180.569 33.2453 180.452 33.5547 180.303 33.832ZM177.271 69.384C177.335 70.0453 177.303 70.5467 177.175 70.888C177.047 71.2507 176.866 71.4853 176.631 71.592C176.375 71.72 176.087 71.7413 175.767 71.656C175.447 71.5707 175.138 71.4107 174.839 71.176C174.54 70.9627 174.274 70.696 174.039 70.376C173.783 70.056 173.612 69.7147 173.527 69.352C173.186 68.0507 173.1 66.5253 173.271 64.776C173.42 63.048 173.762 61.192 174.295 59.208C174.807 57.2453 175.458 55.208 176.247 53.096C177.036 51.0053 177.9 48.9467 178.839 46.92C179.756 44.8933 180.706 42.9627 181.687 41.128C182.668 39.272 183.596 37.6293 184.471 36.2C185.367 34.7493 186.178 33.5547 186.903 32.616C187.628 31.6773 188.194 31.0907 188.599 30.856C189.239 30.472 189.826 30.2693 190.359 30.248C190.914 30.2267 191.34 30.3227 191.639 30.536C191.959 30.728 192.13 31.016 192.151 31.4C192.172 31.784 192.002 32.2 191.639 32.648L190.007 34.888C190.498 34.376 190.999 33.8853 191.511 33.416C192.044 32.9467 192.578 32.5307 193.111 32.168C193.644 31.8053 194.167 31.496 194.679 31.24C195.191 30.984 195.692 30.8133 196.183 30.728C197.228 30.536 198.092 30.568 198.775 30.824C199.458 31.0587 199.98 31.432 200.343 31.944C200.727 32.4347 200.962 33.0107 201.047 33.672C201.154 34.3333 201.143 34.984 201.015 35.624C200.61 37.6293 200.034 39.4533 199.287 41.096C198.54 42.7173 197.698 44.168 196.759 45.448C195.842 46.728 194.86 47.8373 193.815 48.776C192.791 49.7147 191.778 50.4933 190.775 51.112C189.772 51.7307 188.834 52.2 187.959 52.52C187.084 52.8187 186.338 52.9787 185.719 53C185.484 53 185.196 52.9467 184.855 52.84C184.514 52.7333 184.194 52.552 183.895 52.296C183.618 52.0187 183.394 51.6667 183.223 51.24C183.052 50.792 182.999 50.2373 183.063 49.576C183.148 48.8293 183.319 48.2 183.575 47.688C183.831 47.176 184.119 46.7707 184.439 46.472C184.78 46.152 185.132 45.928 185.495 45.8C185.879 45.672 186.21 45.6187 186.487 45.64C186.786 45.64 187.02 45.704 187.191 45.832C187.362 45.96 187.426 46.12 187.383 46.312C186.999 47.016 186.732 47.5813 186.583 48.008C186.434 48.4347 186.37 48.7547 186.391 48.968C186.412 49.16 186.498 49.2773 186.647 49.32C186.818 49.3627 187.02 49.352 187.255 49.288C188.002 49.096 188.77 48.7227 189.559 48.168C190.348 47.592 191.127 46.9093 191.895 46.12C192.663 45.3307 193.388 44.4667 194.071 43.528C194.754 42.5893 195.351 41.6613 195.863 40.744C196.396 39.8053 196.823 38.92 197.143 38.088C197.463 37.256 197.634 36.5413 197.655 35.944C197.655 35.7093 197.623 35.4853 197.559 35.272C197.495 35.0587 197.367 34.888 197.175 34.76C197.004 34.6107 196.759 34.5253 196.439 34.504C196.14 34.4827 195.767 34.536 195.319 34.664C194.572 34.8987 193.73 35.304 192.791 35.88C191.874 36.456 190.914 37.1813 189.911 38.056C188.93 38.9307 187.948 39.944 186.967 41.096C185.986 42.2267 185.068 43.464 184.215 44.808C182.935 47.3893 181.815 49.9387 180.855 52.456C179.895 54.952 179.116 57.288 178.519 59.464C177.922 61.64 177.516 63.5813 177.303 65.288C177.09 67.016 177.079 68.3813 177.271 69.384ZM215.519 36.616C215.925 36.3387 216.426 36.2213 217.023 36.264C217.621 36.2853 218.165 36.424 218.655 36.68C219.146 36.9147 219.519 37.2347 219.775 37.64C220.031 38.0453 220.031 38.4613 219.775 38.888C219.69 39.016 219.541 39.2507 219.327 39.592C219.114 39.9333 218.858 40.328 218.559 40.776C218.282 41.224 217.994 41.704 217.695 42.216C217.418 42.7067 217.173 43.1653 216.959 43.592C216.767 43.9973 216.629 44.3493 216.543 44.648C216.458 44.9253 216.479 45.0853 216.607 45.128C217.055 45.256 217.578 45.224 218.175 45.032C218.773 44.84 219.381 44.5413 219.999 44.136C220.639 43.7093 221.258 43.208 221.855 42.632C222.453 42.0347 222.975 41.4053 223.423 40.744C223.615 40.4667 223.839 40.36 224.095 40.424C224.373 40.4667 224.607 40.616 224.799 40.872C224.991 41.1067 225.119 41.416 225.183 41.8C225.247 42.184 225.173 42.568 224.959 42.952C224.639 43.528 224.117 44.1787 223.391 44.904C222.687 45.608 221.866 46.248 220.927 46.824C220.01 47.3787 219.007 47.7947 217.919 48.072C216.853 48.328 215.807 48.2853 214.783 47.944C214.335 47.7947 213.93 47.5707 213.567 47.272C212.97 47.9547 212.33 48.616 211.647 49.256C210.986 49.896 210.303 50.472 209.599 50.984C208.895 51.496 208.17 51.9227 207.423 52.264C206.677 52.584 205.919 52.7867 205.151 52.872C204.895 52.8933 204.565 52.9147 204.159 52.936C203.775 52.936 203.359 52.8933 202.911 52.808C202.463 52.7013 202.015 52.5307 201.567 52.296C201.141 52.0613 200.757 51.72 200.415 51.272C200.095 50.824 199.85 50.248 199.679 49.544C199.509 48.8187 199.466 47.9227 199.551 46.856C199.615 45.9813 199.861 44.9893 200.287 43.88C200.714 42.7493 201.279 41.5973 201.983 40.424C202.687 39.2507 203.498 38.0987 204.415 36.968C205.354 35.8373 206.367 34.824 207.455 33.928C208.543 33.032 209.685 32.296 210.879 31.72C212.095 31.144 213.333 30.824 214.591 30.76C215.466 30.7173 216.213 30.7707 216.831 30.92C217.471 31.0693 217.994 31.272 218.399 31.528C218.805 31.784 219.103 32.0827 219.295 32.424C219.509 32.7653 219.626 33.1067 219.647 33.448C219.669 33.832 219.605 34.1947 219.455 34.536C219.327 34.8773 219.157 35.1653 218.943 35.4C218.73 35.6347 218.506 35.784 218.271 35.848C218.058 35.912 217.887 35.8587 217.759 35.688C217.333 35.112 216.789 34.7387 216.127 34.568C215.466 34.376 214.794 34.3653 214.111 34.536C212.938 34.8347 211.85 35.3147 210.847 35.976C209.866 36.616 208.97 37.352 208.159 38.184C207.37 39.016 206.666 39.8907 206.047 40.808C205.429 41.7253 204.906 42.6107 204.479 43.464C204.074 44.3173 203.754 45.0853 203.519 45.768C203.285 46.4507 203.157 46.9733 203.135 47.336C203.093 47.848 203.135 48.264 203.263 48.584C203.413 48.904 203.594 49.16 203.807 49.352C204.042 49.5227 204.287 49.64 204.543 49.704C204.799 49.768 205.023 49.8 205.215 49.8C205.706 49.7787 206.239 49.608 206.815 49.288C207.413 48.9467 208.01 48.5093 208.607 47.976C209.226 47.4213 209.845 46.8027 210.463 46.12C211.082 45.4373 211.679 44.744 212.255 44.04C212.213 43.3787 212.255 42.6853 212.383 41.96C212.533 41.2347 212.746 40.5413 213.023 39.88C213.322 39.1973 213.674 38.5787 214.079 38.024C214.506 37.448 214.986 36.9787 215.519 36.616ZM230.943 47.944C230.687 48.4987 230.538 48.904 230.495 49.16C230.474 49.416 230.516 49.576 230.623 49.64C230.751 49.6827 230.922 49.6507 231.135 49.544C231.37 49.416 231.604 49.256 231.839 49.064C232.394 48.6373 233.034 48.104 233.759 47.464C234.506 46.8027 235.242 46.12 235.967 45.416C236.692 44.712 237.375 44.0187 238.015 43.336C238.655 42.632 239.167 42.0027 239.551 41.448C239.807 41.0853 240.074 40.8933 240.351 40.872C240.628 40.8507 240.852 40.9573 241.023 41.192C241.194 41.4053 241.29 41.736 241.311 42.184C241.332 42.632 241.215 43.1333 240.959 43.688C240.895 43.8587 240.65 44.232 240.223 44.808C239.818 45.3627 239.284 46.0133 238.623 46.76C237.983 47.4853 237.247 48.2427 236.415 49.032C235.583 49.8213 234.708 50.536 233.791 51.176C232.895 51.7947 231.978 52.2747 231.039 52.616C230.122 52.9573 229.247 53.0427 228.415 52.872C227.583 52.6587 226.964 52.264 226.559 51.688C226.154 51.112 226.026 50.2373 226.175 49.064C226.239 48.552 226.378 47.9867 226.591 47.368C226.826 46.728 227.114 46.0773 227.455 45.416C227.796 44.7333 228.159 44.04 228.543 43.336C228.948 42.632 229.364 41.96 229.791 41.32C230.751 39.8053 231.828 38.2373 233.023 36.616C232.916 36.616 232.778 36.6267 232.607 36.648C232.436 36.6693 232.234 36.6907 231.999 36.712C231.786 36.7333 231.54 36.7333 231.263 36.712C231.007 36.6693 230.751 36.5947 230.495 36.488C229.876 37.3413 229.204 38.28 228.479 39.304C227.754 40.3067 227.007 41.4373 226.239 42.696C225.492 43.9333 224.735 45.32 223.967 46.856C223.199 48.3707 222.452 50.056 221.727 51.912C221.556 52.3173 221.343 52.5947 221.087 52.744C220.81 52.872 220.532 52.8613 220.255 52.712C219.978 52.5413 219.743 52.232 219.551 51.784C219.338 51.3147 219.22 50.696 219.199 49.928C219.178 49.3733 219.327 48.68 219.647 47.848C219.967 47.016 220.394 46.1093 220.927 45.128C221.46 44.1253 222.058 43.0907 222.719 42.024C223.402 40.936 224.095 39.8907 224.799 38.888C225.503 37.864 226.186 36.904 226.847 36.008C227.53 35.112 228.127 34.3547 228.639 33.736C228.532 32.9253 228.628 32.0933 228.927 31.24C229.226 30.3653 229.642 29.5547 230.175 28.808C230.73 28.0613 231.338 27.4213 231.999 26.888C232.682 26.3333 233.343 25.9707 233.983 25.8C234.324 25.7147 234.687 25.768 235.071 25.96C235.476 26.152 235.828 26.3973 236.127 26.696C236.447 26.9733 236.671 27.272 236.799 27.592C236.948 27.912 236.927 28.1573 236.735 28.328C236.052 28.9467 235.455 29.5547 234.943 30.152C234.431 30.7493 233.994 31.2933 233.631 31.784C233.226 32.3387 232.874 32.8827 232.575 33.416C233.258 33.3733 233.898 33.3307 234.495 33.288C235.007 33.2453 235.53 33.2027 236.063 33.16C236.596 33.1173 237.023 33.0533 237.343 32.968C237.663 32.904 237.94 32.9573 238.175 33.128C238.431 33.2773 238.644 33.48 238.815 33.736C238.986 33.9707 239.103 34.2053 239.167 34.44C239.252 34.6747 239.274 34.824 239.231 34.888C239.21 34.9307 239.028 35.1867 238.687 35.656C238.346 36.104 237.908 36.6907 237.375 37.416C236.863 38.12 236.287 38.9307 235.647 39.848C235.028 40.7653 234.41 41.704 233.791 42.664C233.194 43.6027 232.639 44.5307 232.127 45.448C231.615 46.3653 231.22 47.1973 230.943 47.944ZM263.16 16.744C262.733 17.1067 262.306 17.48 261.88 17.864C261.474 18.248 261.069 18.632 260.664 19.016C261.688 18.9733 262.573 18.952 263.32 18.952C264.066 18.9307 264.525 18.9413 264.696 18.984C265.101 19.0907 265.261 19.304 265.176 19.624C265.112 19.944 264.92 20.2747 264.6 20.616C264.301 20.9573 263.938 21.2667 263.512 21.544C263.106 21.8213 262.765 21.9707 262.488 21.992L257.336 22.312C254.968 24.7867 252.781 27.3253 250.776 29.928C248.792 32.5307 247.053 35.0053 245.56 37.352C244.066 39.6773 242.872 41.7787 241.976 43.656C241.08 45.512 240.546 46.9413 240.376 47.944C240.269 48.5627 240.205 49 240.184 49.256C240.184 49.512 240.226 49.6613 240.312 49.704C240.397 49.7253 240.514 49.672 240.664 49.544C240.834 49.416 241.037 49.256 241.272 49.064C241.826 48.6373 242.466 48.104 243.192 47.464C243.938 46.8027 244.674 46.12 245.4 45.416C246.125 44.712 246.808 44.0187 247.448 43.336C248.088 42.632 248.6 42.0027 248.984 41.448C249.24 41.0853 249.506 40.8933 249.784 40.872C250.061 40.8507 250.285 40.9573 250.456 41.192C250.626 41.4053 250.722 41.736 250.744 42.184C250.765 42.632 250.648 43.1333 250.392 43.688C250.328 43.8587 250.093 44.232 249.688 44.808C249.304 45.3627 248.802 46.0133 248.184 46.76C247.565 47.5067 246.861 48.2853 246.072 49.096C245.304 49.8853 244.482 50.5893 243.608 51.208C242.754 51.8267 241.88 52.3067 240.984 52.648C240.088 52.9893 239.234 53.064 238.424 52.872C237.805 52.744 237.389 52.4347 237.175 51.944C236.941 51.432 236.791 50.8133 236.727 50.088C236.642 48.936 236.791 47.6453 237.175 46.216C237.559 44.7867 238.114 43.2827 238.84 41.704C239.586 40.1253 240.472 38.4933 241.496 36.808C242.52 35.1227 243.608 33.4587 244.76 31.816C245.933 30.1733 247.138 28.5733 248.376 27.016C249.613 25.4373 250.829 23.9653 252.024 22.6C251.234 22.6427 250.488 22.6853 249.784 22.728C249.08 22.7707 248.45 22.8133 247.896 22.856C247.341 22.8773 246.882 22.8987 246.52 22.92C246.178 22.92 245.976 22.92 245.911 22.92C245.741 22.92 245.645 22.7707 245.624 22.472C245.624 22.152 245.698 21.8 245.848 21.416C246.018 21.0107 246.274 20.6373 246.616 20.296C246.957 19.9547 247.394 19.752 247.928 19.688C248.056 19.6667 248.344 19.6453 248.792 19.624C249.24 19.5813 249.784 19.5493 250.424 19.528C251.064 19.4853 251.778 19.4427 252.568 19.4C253.378 19.336 254.221 19.2827 255.096 19.24C256.333 17.96 257.421 16.9147 258.36 16.104C259.298 15.2933 259.992 14.8027 260.44 14.632C261.144 14.376 261.762 14.2693 262.296 14.312C262.829 14.3547 263.234 14.4933 263.512 14.728C263.789 14.9627 263.906 15.2613 263.864 15.624C263.842 15.9867 263.608 16.36 263.16 16.744ZM262.704 39.048C263.28 38.536 263.866 38.2053 264.464 38.056C265.061 37.8853 265.573 37.832 266 37.896C266.448 37.96 266.778 38.088 266.992 38.28C267.205 38.4507 267.226 38.6107 267.056 38.76C266.885 38.9093 266.672 39.176 266.416 39.56C266.181 39.944 265.914 40.4027 265.616 40.936C265.338 41.4693 265.04 42.056 264.72 42.696C264.4 43.3147 264.08 43.944 263.76 44.584C263.44 45.2027 263.141 45.8107 262.864 46.408C262.586 46.984 262.341 47.496 262.128 47.944C261.872 48.4987 261.722 48.904 261.68 49.16C261.658 49.416 261.701 49.576 261.808 49.64C261.936 49.6827 262.106 49.6507 262.32 49.544C262.554 49.416 262.789 49.256 263.024 49.064C263.578 48.6373 264.218 48.104 264.944 47.464C265.69 46.8027 266.426 46.12 267.152 45.416C267.877 44.712 268.56 44.0187 269.2 43.336C269.84 42.632 270.352 42.0027 270.736 41.448C270.992 41.0853 271.258 40.8933 271.536 40.872C271.813 40.8507 272.037 40.9573 272.208 41.192C272.378 41.4053 272.474 41.736 272.496 42.184C272.517 42.632 272.4 43.1333 272.144 43.688C272.08 43.8587 271.845 44.232 271.44 44.808C271.056 45.3627 270.554 46.0133 269.936 46.76C269.317 47.5067 268.613 48.2853 267.824 49.096C267.056 49.8853 266.234 50.5893 265.36 51.208C264.506 51.8267 263.632 52.3067 262.736 52.648C261.84 52.9893 260.986 53.064 260.176 52.872C259.344 52.68 258.789 52.2533 258.512 51.592C258.234 50.9093 258.138 50.0987 258.224 49.16C257.669 49.672 257.104 50.1627 256.528 50.632C255.952 51.1013 255.376 51.5173 254.8 51.88C254.224 52.2213 253.648 52.4987 253.072 52.712C252.517 52.904 251.973 53 251.44 53C250.8 53 250.224 52.8827 249.712 52.648C249.2 52.392 248.762 52.072 248.4 51.688C248.058 51.2827 247.792 50.824 247.6 50.312C247.429 49.7787 247.344 49.224 247.344 48.648C247.365 46.92 247.653 45.2773 248.208 43.72C248.784 42.1413 249.509 40.68 250.384 39.336C251.258 37.992 252.25 36.7867 253.36 35.72C254.469 34.6533 255.578 33.7467 256.688 33C257.797 32.2533 258.853 31.688 259.856 31.304C260.858 30.8987 261.712 30.7067 262.416 30.728C263.248 30.7493 263.962 30.9093 264.56 31.208C265.157 31.4853 265.648 31.8373 266.032 32.264C266.416 32.6693 266.704 33.1173 266.896 33.608C267.088 34.0773 267.194 34.536 267.216 34.984C267.258 35.4107 267.226 35.784 267.12 36.104C267.013 36.4027 266.853 36.584 266.64 36.648C266.106 36.8187 265.701 36.808 265.424 36.616C265.146 36.4027 264.88 36.136 264.624 35.816C264.389 35.496 264.101 35.1867 263.76 34.888C263.418 34.5893 262.917 34.4293 262.256 34.408C261.509 34.3867 260.73 34.5787 259.92 34.984C259.109 35.368 258.309 35.8907 257.52 36.552C256.752 37.2133 256.005 37.9707 255.28 38.824C254.576 39.6773 253.946 40.5733 253.392 41.512C252.837 42.4293 252.378 43.3467 252.016 44.264C251.653 45.1813 251.429 46.024 251.344 46.792C251.237 47.7733 251.322 48.4347 251.6 48.776C251.877 49.096 252.272 49.1813 252.784 49.032C253.317 48.8613 253.936 48.4987 254.64 47.944C255.365 47.368 256.122 46.6853 256.912 45.896C257.722 45.0853 258.533 44.2 259.344 43.24C260.176 42.2587 260.965 41.288 261.712 40.328C262.096 39.7093 262.426 39.2827 262.704 39.048ZM289.96 33.832C288.701 36.0933 287.528 38.3973 286.44 40.744C285.352 43.0907 284.232 45.4907 283.08 47.944C282.824 48.4987 282.675 48.904 282.632 49.16C282.611 49.416 282.653 49.576 282.76 49.64C282.888 49.6827 283.059 49.6507 283.272 49.544C283.507 49.416 283.741 49.256 283.976 49.064C284.531 48.6373 285.171 48.104 285.896 47.464C286.643 46.8027 287.379 46.12 288.104 45.416C288.829 44.712 289.512 44.0187 290.152 43.336C290.792 42.632 291.304 42.0027 291.688 41.448C291.944 41.0853 292.211 40.8933 292.488 40.872C292.765 40.8507 292.989 40.9573 293.16 41.192C293.331 41.4053 293.427 41.736 293.448 42.184C293.469 42.632 293.352 43.1333 293.096 43.688C293.011 43.8587 292.776 44.232 292.392 44.808C292.008 45.3627 291.507 46.0133 290.888 46.76C290.269 47.5067 289.565 48.2853 288.776 49.096C288.008 49.8853 287.187 50.5893 286.312 51.208C285.459 51.8267 284.584 52.3067 283.688 52.648C282.792 52.9893 281.939 53.064 281.128 52.872C279.997 52.616 279.293 51.9973 279.016 51.016C278.76 50.0133 278.845 48.808 279.272 47.4C279.741 45.864 280.285 44.4347 280.904 43.112C281.523 41.7893 282.109 40.616 282.664 39.592C283.219 38.568 283.709 37.7147 284.136 37.032C284.563 36.328 284.84 35.848 284.968 35.592C285.075 35.3787 285.085 35.2613 285 35.24C284.936 35.2187 284.829 35.2507 284.68 35.336C284.531 35.4 284.371 35.496 284.2 35.624C284.029 35.752 283.901 35.848 283.816 35.912C283.304 36.2533 282.685 36.7333 281.96 37.352C281.256 37.9493 280.499 38.6427 279.688 39.432C278.899 40.2 278.088 41.0427 277.256 41.96C276.424 42.856 275.645 43.7733 274.92 44.712C274.195 45.6293 273.555 46.5467 273 47.464C272.445 48.3813 272.04 49.2453 271.784 50.056C271.784 50.1413 271.773 50.2267 271.752 50.312C271.752 50.376 271.752 50.44 271.752 50.504C271.645 51.528 271.379 52.2213 270.952 52.584C270.525 52.9467 270.056 52.9253 269.544 52.52C269.181 52.2213 268.883 51.7947 268.648 51.24C268.392 50.6853 268.285 49.864 268.328 48.776C268.349 48.0933 268.509 47.2827 268.808 46.344C269.085 45.384 269.437 44.3707 269.864 43.304C270.312 42.216 270.803 41.1173 271.336 40.008C271.869 38.8987 272.403 37.8533 272.936 36.872C273.469 35.8907 273.971 35.016 274.44 34.248C274.931 33.4587 275.325 32.8613 275.624 32.456C276.115 31.7947 276.712 31.3253 277.416 31.048C278.141 30.7707 278.792 30.6533 279.368 30.696C279.965 30.7173 280.403 30.888 280.68 31.208C280.957 31.5067 280.904 31.9227 280.52 32.456C279.709 33.608 278.973 34.6853 278.312 35.688C277.651 36.6907 277.053 37.64 276.52 38.536C277.331 37.5333 278.205 36.552 279.144 35.592C280.083 34.6107 281.053 33.7467 282.056 33C283.08 32.2533 284.125 31.6667 285.192 31.24C286.259 30.8133 287.325 30.6427 288.392 30.728C289.011 30.7707 289.469 30.9093 289.768 31.144C290.067 31.3787 290.259 31.6453 290.344 31.944C290.429 32.2427 290.419 32.5627 290.312 32.904C290.227 33.2453 290.109 33.5547 289.96 33.832ZM315.503 16.744C315.077 17.1067 314.65 17.48 314.223 17.864C313.818 18.248 313.413 18.632 313.007 19.016C314.031 18.9733 314.917 18.952 315.663 18.952C316.41 18.9307 316.869 18.9413 317.039 18.984C317.445 19.0907 317.605 19.304 317.519 19.624C317.455 19.944 317.263 20.2747 316.943 20.616C316.645 20.9573 316.282 21.2667 315.855 21.544C315.45 21.8213 315.109 21.9707 314.831 21.992L309.679 22.312C307.311 24.7867 305.125 27.3253 303.119 29.928C301.135 32.5307 299.397 35.0053 297.903 37.352C296.41 39.6773 295.215 41.7787 294.319 43.656C293.423 45.512 292.89 46.9413 292.719 47.944C292.613 48.5627 292.549 49 292.527 49.256C292.527 49.512 292.57 49.6613 292.655 49.704C292.741 49.7253 292.858 49.672 293.007 49.544C293.178 49.416 293.381 49.256 293.615 49.064C294.17 48.6373 294.81 48.104 295.535 47.464C296.282 46.8027 297.018 46.12 297.743 45.416C298.469 44.712 299.151 44.0187 299.791 43.336C300.431 42.632 300.943 42.0027 301.327 41.448C301.583 41.0853 301.85 40.8933 302.127 40.872C302.405 40.8507 302.629 40.9573 302.799 41.192C302.97 41.4053 303.066 41.736 303.087 42.184C303.109 42.632 302.991 43.1333 302.735 43.688C302.671 43.8587 302.437 44.232 302.031 44.808C301.647 45.3627 301.146 46.0133 300.527 46.76C299.909 47.5067 299.205 48.2853 298.415 49.096C297.647 49.8853 296.826 50.5893 295.951 51.208C295.098 51.8267 294.223 52.3067 293.327 52.648C292.431 52.9893 291.578 53.064 290.767 52.872C290.149 52.744 289.733 52.4347 289.519 51.944C289.285 51.432 289.135 50.8133 289.071 50.088C288.986 48.936 289.135 47.6453 289.519 46.216C289.903 44.7867 290.458 43.2827 291.183 41.704C291.93 40.1253 292.815 38.4933 293.839 36.808C294.863 35.1227 295.951 33.4587 297.103 31.816C298.277 30.1733 299.482 28.5733 300.719 27.016C301.957 25.4373 303.173 23.9653 304.367 22.6C303.578 22.6427 302.831 22.6853 302.127 22.728C301.423 22.7707 300.794 22.8133 300.239 22.856C299.685 22.8773 299.226 22.8987 298.863 22.92C298.522 22.92 298.319 22.92 298.255 22.92C298.085 22.92 297.989 22.7707 297.967 22.472C297.967 22.152 298.042 21.8 298.191 21.416C298.362 21.0107 298.618 20.6373 298.959 20.296C299.301 19.9547 299.738 19.752 300.271 19.688C300.399 19.6667 300.687 19.6453 301.135 19.624C301.583 19.5813 302.127 19.5493 302.767 19.528C303.407 19.4853 304.122 19.4427 304.911 19.4C305.722 19.336 306.565 19.2827 307.439 19.24C308.677 17.96 309.765 16.9147 310.703 16.104C311.642 15.2933 312.335 14.8027 312.783 14.632C313.487 14.376 314.106 14.2693 314.639 14.312C315.173 14.3547 315.578 14.4933 315.855 14.728C316.133 14.9627 316.25 15.2613 316.207 15.624C316.186 15.9867 315.951 16.36 315.503 16.744Z" fill="white"/>
</svg>
