<svg width="123" height="61" viewBox="0 0 123 61" fill="none" xmlns="http://www.w3.org/2000/svg">
<rect x="0.135498" y="14.1333" width="118.179" height="46.6616" rx="23.3308" transform="rotate(-6 0.135498 14.1333)" fill="#FFC727"/>
<path d="M20.691 45.8626L18.5096 25.1088L27.7909 24.1333C29.9178 23.9097 31.7705 24.0734 33.3489 24.6243C34.925 25.1538 36.1919 26.1501 37.1494 27.6134C38.1046 29.0553 38.7155 31.0438 38.9819 33.5789C39.3568 37.1453 38.7599 39.8363 37.1913 41.6521C35.6227 43.4678 33.2163 44.5461 29.9722 44.8871L20.691 45.8626ZM26.2618 40.5852L28.711 40.3278C29.7207 40.2216 30.5547 39.9928 31.2128 39.6412C31.8687 39.2682 32.3375 38.665 32.6192 37.8317C32.8986 36.9769 32.957 35.7761 32.7945 34.2292C32.6319 32.6824 32.3347 31.5081 31.9029 30.7063C31.4903 29.8808 30.9233 29.3431 30.2019 29.093C29.4783 28.8216 28.5794 28.7423 27.5052 28.8552L25.056 29.1126L26.2618 40.5852ZM39.9047 43.8431L45.6833 22.2527L52.0964 21.5787L62.2376 41.4958L55.9212 42.1597L53.717 37.9276L47.465 38.5847L46.2211 43.1793L39.9047 43.8431ZM47.8134 34.1495L52.454 33.6617L49.4936 27.8148L47.8134 34.1495ZM66.673 41.0297L65.8736 33.4242L57.0152 21.0617L63.3315 20.3978L68.344 27.7885L71.7104 19.5171L78.0268 18.8533L71.9322 32.7875L72.7316 40.3929L66.673 41.0297ZM91.8814 38.3802L90.2894 23.2338L86.8954 24.1118L86.3636 19.0523L95.7247 16.6673L97.9399 37.7434L91.8814 38.3802Z" fill="black"/>
</svg>
