<svg width="123" height="61" viewBox="0 0 123 61" fill="none" xmlns="http://www.w3.org/2000/svg">
<rect x="4.88184" y="1.28857" width="118.179" height="46.6616" rx="23.3308" transform="rotate(6 4.88184 1.28857)" fill="#FFC727"/>
<path d="M18.3913 36.5984L20.5726 15.8446L29.8538 16.8201C31.9808 17.0436 33.7589 17.5889 35.1883 18.456C36.6199 19.3015 37.6519 20.5395 38.2843 22.1699C38.9189 23.7789 39.1029 25.8509 38.8365 28.3861C38.4616 31.9524 37.3183 34.4606 35.4065 35.9105C33.4946 37.3604 30.9166 37.9149 27.6725 37.5739L18.3913 36.5984ZM24.9376 32.5946L27.3868 32.852C28.3966 32.9581 29.2599 32.9077 29.9767 32.7006C30.6958 32.4721 31.2798 31.9796 31.7286 31.223C32.1796 30.445 32.4864 29.2826 32.649 27.7357C32.8116 26.1889 32.765 24.9784 32.5094 24.1044C32.2774 23.2112 31.8346 22.5673 31.181 22.1728C30.5296 21.7567 29.6669 21.4923 28.5926 21.3794L26.1434 21.122L24.9376 32.5946ZM37.605 38.6178L47.7463 18.7006L54.1593 19.3747L59.9379 40.9651L53.6216 40.3012L52.3454 35.7033L46.0935 35.0462L43.9214 39.2817L37.605 38.6178ZM47.3564 30.7803L51.997 31.2681L50.3168 24.9334L47.3564 30.7803ZM64.3733 41.4313L65.1727 33.8259L59.0781 19.8917L65.3945 20.5555L68.7609 28.8269L73.7734 21.4362L80.0898 22.1001L71.2313 34.4626L70.4319 42.0681L64.3733 41.4313ZM92.8994 44.7553C92.2978 44.6921 91.573 44.5616 90.7249 44.3639C89.8746 44.1876 89.0395 43.9695 88.2197 43.7096C87.4213 43.4519 86.7542 43.1863 86.2182 42.9127L86.7262 38.0788C87.6071 38.5841 88.5638 38.9887 89.5962 39.2927C90.6309 39.5752 91.5779 39.7617 92.4373 39.852C93.6404 39.9784 94.5478 39.9217 95.1595 39.6819C95.7927 39.4444 96.1521 38.9174 96.2379 38.101C96.3644 36.8979 95.4823 36.197 93.5917 35.9983L90.079 35.6291L90.8925 31.6092L93.8251 31.9174C94.7704 32.0168 95.463 31.9375 95.9028 31.6796C96.3426 31.4218 96.5975 30.9598 96.6675 30.2938C96.733 29.6708 96.5141 29.1699 96.0109 28.7912C95.5292 28.4147 94.6975 28.1644 93.5158 28.0402C92.5705 27.9408 91.6032 27.9478 90.6138 28.061C89.6244 28.1742 88.7679 28.3666 88.0443 28.6381L88.549 23.8363C89.3778 23.5976 90.3943 23.4329 91.5985 23.3423C92.805 23.2302 93.999 23.2362 95.1807 23.3604C96.9853 23.5501 98.4836 23.9682 99.6755 24.6148C100.867 25.2614 101.738 26.0697 102.288 27.0398C102.838 28.0099 103.051 29.075 102.93 30.2351C102.826 31.2234 102.537 32.1054 102.065 32.8812C101.614 33.6592 100.998 34.2462 100.218 34.642C101.882 35.5554 102.599 37.097 102.371 39.267C102.215 40.7494 101.701 41.9226 100.828 42.7866C99.977 43.6529 98.8616 44.2416 97.4822 44.5528C96.1242 44.8662 94.5966 44.9337 92.8994 44.7553Z" fill="black"/>
</svg>
