<svg width="123" height="61" viewBox="0 0 123 61" fill="none" xmlns="http://www.w3.org/2000/svg">
<rect x="4.88184" y="1.78027" width="118.179" height="46.6616" rx="23.3308" transform="rotate(6 4.88184 1.78027)" fill="#FFC727"/>
<path d="M18.3913 37.0898L20.5726 16.336L29.8538 17.3115C31.9808 17.5351 33.7589 18.0804 35.1883 18.9474C36.6199 19.793 37.6519 21.031 38.2843 22.6614C38.9189 24.2703 39.1029 26.3424 38.8365 28.8775C38.4616 32.4439 37.3183 34.952 35.4065 36.4019C33.4946 37.8518 30.9166 38.4063 27.6725 38.0653L18.3913 37.0898ZM24.9376 33.086L27.3868 33.3434C28.3966 33.4496 29.2599 33.3991 29.9767 33.1921C30.6958 32.9636 31.2798 32.471 31.7286 31.7145C32.1796 30.9365 32.4864 29.774 32.649 28.2272C32.8116 26.6803 32.765 25.4699 32.5094 24.5959C32.2774 23.7026 31.8346 23.0587 31.181 22.6642C30.5296 22.2482 29.6669 21.9837 28.5926 21.8708L26.1434 21.6134L24.9376 33.086ZM37.605 39.1093L47.7463 19.1921L54.1593 19.8661L59.9379 41.4566L53.6216 40.7927L52.3454 36.1948L46.0935 35.5377L43.9214 39.7732L37.605 39.1093ZM47.3564 31.2718L51.997 31.7595L50.3168 25.4249L47.3564 31.2718ZM64.3733 41.9227L65.1727 34.3173L59.0781 20.3831L65.3945 21.047L68.7609 29.3183L73.7734 21.9277L80.0898 22.5915L71.2313 34.9541L70.4319 42.5595L64.3733 41.9227ZM86.1335 44.2098L86.4248 41.4384C87.146 40.3629 87.9837 39.4192 88.9379 38.6072C89.8922 37.7952 90.9453 36.9718 92.0974 36.1372C93.0618 35.4348 93.8396 34.8541 94.4309 34.3949C95.0437 33.938 95.5027 33.4975 95.808 33.0734C96.1369 32.6301 96.333 32.1077 96.3963 31.5061C96.5566 29.9808 95.6377 29.1131 93.6397 28.9031C92.7159 28.806 91.8022 28.8185 90.8988 28.9408C90.0169 29.0653 89.1722 29.2481 88.3649 29.489L88.9069 24.3328C89.8238 24.0816 90.8833 23.9215 92.0853 23.8523C93.2895 23.7617 94.4932 23.7796 95.6963 23.906C98.2744 24.177 100.133 24.9914 101.272 26.3492C102.413 27.6856 102.876 29.3743 102.662 31.4153C102.56 32.382 102.354 33.2075 102.043 33.8917C101.756 34.5566 101.345 35.1542 100.812 35.6846C100.278 36.215 99.6005 36.7737 98.7785 37.3607C98.0515 37.8708 97.3353 38.382 96.6298 38.8943C95.9243 39.4066 95.3488 39.9218 94.9034 40.4397L101.832 41.168L101.344 45.8086L86.1335 44.2098Z" fill="black"/>
</svg>
