<svg width="362" height="151" viewBox="0 0 362 151" fill="none" xmlns="http://www.w3.org/2000/svg">
<path d="M0.657227 95L8.91054 55.9181H29.2404C32.032 55.9181 34.338 56.4238 36.1586 57.4352C38.0197 58.4062 39.3952 59.7615 40.2853 61.5012C41.2158 63.2409 41.6811 65.2031 41.6811 67.3878C41.6811 68.4397 41.5597 69.5522 41.317 70.7255C40.4269 75.2567 38.5052 78.8372 35.5518 81.467C32.6388 84.0967 28.6133 85.4116 23.4752 85.4116H15.7074L13.7048 95H0.657227ZM17.8921 75.277H22.6256C24.3653 75.277 25.6195 74.8724 26.3882 74.0632C27.1973 73.2136 27.7435 72.1011 28.0267 70.7255C28.1481 70.1186 28.2087 69.5522 28.2087 69.0263C28.2087 68.0958 27.9458 67.3675 27.4198 66.8416C26.8939 66.3156 26.024 66.0527 24.8103 66.0527H19.8341L17.8921 75.277Z" fill="white"/>
<path d="M38.6453 95L46.8987 55.9181H59.9462L53.7562 85.0474H70.5056L68.4422 95H38.6453Z" fill="white"/>
<path d="M89.4534 95.6068C86.2977 95.6068 83.5466 95.0404 81.2001 93.9076C78.8535 92.7748 77.0127 91.197 75.6776 89.1741C74.383 87.1108 73.7357 84.7238 73.7357 82.0131C73.7357 81.4063 73.7761 80.7994 73.8571 80.1925C73.938 79.5857 74.0391 78.9586 74.1605 78.3113L78.894 55.9181H91.9415L87.208 78.2506C87.1271 78.7361 87.0462 79.2013 86.9653 79.6464C86.9248 80.0509 86.9046 80.4353 86.9046 80.7994C86.9046 82.175 87.2889 83.1459 88.0576 83.7123C88.8668 84.2787 90.1209 84.5619 91.8202 84.5619C93.9239 84.5619 95.5422 84.0967 96.6751 83.1662C97.8079 82.1952 98.617 80.5567 99.1025 78.2506L103.836 55.9181H116.884L111.847 79.7677C110.754 84.9058 108.246 88.8302 104.322 91.5409C100.438 94.2515 95.4816 95.6068 89.4534 95.6068Z" fill="white"/>
<path d="M121.269 95L127.52 65.4458H117.082L119.084 55.9181H153.069L151.066 65.4458H140.567L134.317 95H121.269Z" fill="white"/>
<path d="M165.726 95.6068C162.57 95.6068 159.819 95.0404 157.473 93.9076C155.126 92.7748 153.285 91.197 151.95 89.1741C150.656 87.1108 150.008 84.7238 150.008 82.0131C150.008 81.4063 150.049 80.7994 150.13 80.1925C150.211 79.5857 150.312 78.9586 150.433 78.3113L155.167 55.9181H168.214L163.481 78.2506C163.4 78.7361 163.319 79.2013 163.238 79.6464C163.197 80.0509 163.177 80.4353 163.177 80.7994C163.177 82.175 163.561 83.1459 164.33 83.7123C165.139 84.2787 166.394 84.5619 168.093 84.5619C170.196 84.5619 171.815 84.0967 172.948 83.1662C174.08 82.1952 174.89 80.5567 175.375 78.2506L180.109 55.9181H193.156L188.119 79.7677C187.027 84.9058 184.518 88.8302 180.594 91.5409C176.71 94.2515 171.754 95.6068 165.726 95.6068Z" fill="white"/>
<path d="M202.518 95.6068C199.888 95.6068 197.38 95.3843 194.993 94.9393C192.606 94.4942 190.644 93.8672 189.106 93.058L191.291 82.8627C192.99 83.7528 194.912 84.481 197.056 85.0474C199.241 85.6138 201.284 85.897 203.185 85.897C204.804 85.897 206.078 85.7352 207.009 85.4116C207.98 85.0879 208.546 84.481 208.708 83.591C208.91 82.5795 208.404 81.8513 207.191 81.4063C205.977 80.9208 204.197 80.2532 201.85 79.4036C199.221 78.4326 197.218 77.2392 195.842 75.8231C194.467 74.3667 193.779 72.5056 193.779 70.24C193.779 69.3095 193.9 68.3385 194.143 67.3271C195.033 63.1195 197.016 60.065 200.09 58.1635C203.206 56.262 207.656 55.3112 213.441 55.3112C214.817 55.3112 216.253 55.4124 217.75 55.6146C219.287 55.7765 220.744 55.999 222.12 56.2822C223.495 56.5249 224.648 56.8081 225.579 57.1318L223.394 67.3878C221.533 66.5786 219.773 66.0122 218.114 65.6886C216.455 65.3244 214.918 65.1424 213.502 65.1424C212.491 65.1424 211.52 65.2031 210.589 65.3244C209.659 65.4054 208.89 65.6279 208.283 65.992C207.717 66.3156 207.433 66.8416 207.433 67.5698C207.433 68.2171 207.899 68.7229 208.829 69.087C209.8 69.4106 211.317 69.8759 213.381 70.4828C216.82 71.4942 219.186 72.8495 220.481 74.5487C221.816 76.2479 222.484 78.1697 222.484 80.3139C222.484 81.3658 222.362 82.4379 222.12 83.5303C221.351 87.1715 219.368 90.1046 216.172 92.3298C213.017 94.5145 208.465 95.6068 202.518 95.6068Z" fill="white"/>
<path d="M0.657227 150L8.91054 110.918H30.0293C33.7514 110.918 36.6239 111.909 38.6468 113.892C40.7101 115.874 41.7418 118.484 41.7418 121.72C41.7418 122.813 41.6204 123.966 41.3776 125.179C40.8517 127.809 39.7593 130.135 38.1006 132.158C36.4418 134.141 34.3583 135.718 31.8499 136.892C32.214 137.215 32.4972 137.62 32.6995 138.105C32.9423 138.551 33.1243 139.036 33.2457 139.562L35.6125 150H22.0188L19.8947 140.958C19.7734 140.391 19.5711 139.987 19.2879 139.744C19.0047 139.461 18.5192 139.319 17.8314 139.319H15.9501L13.7048 150H0.657227ZM18.0742 129.245H22.8684C24.5271 129.245 25.7408 128.901 26.5095 128.214C27.2782 127.526 27.8042 126.514 28.0874 125.179C28.2087 124.572 28.2694 124.026 28.2694 123.541C28.2694 122.691 28.0065 122.064 27.4805 121.66C26.995 121.255 26.1454 121.053 24.9317 121.053H19.8341L18.0742 129.245Z" fill="white"/>
<path d="M57.8772 150.607C54.5192 150.607 51.5658 150.121 49.017 149.15C46.5086 148.139 44.5464 146.602 43.1304 144.538C41.7549 142.434 41.0671 139.744 41.0671 136.467C41.0671 135.536 41.1076 134.586 41.1885 133.615C41.3098 132.644 41.4919 131.612 41.7346 130.52C42.7865 125.624 44.3441 121.7 46.4075 118.747C48.5113 115.793 51.2017 113.649 54.4787 112.314C57.7962 110.979 61.8015 110.311 66.4946 110.311C71.6731 110.311 75.7593 111.464 78.7532 113.77C81.7875 116.076 83.3047 119.677 83.3047 124.572C83.3047 125.463 83.244 126.413 83.1226 127.425C83.0417 128.396 82.8799 129.427 82.6371 130.52C81.6257 135.334 80.0681 139.218 77.9643 142.171C75.9009 145.125 73.2105 147.269 69.893 148.604C66.616 149.939 62.6107 150.607 57.8772 150.607ZM60.2439 139.562C62.7523 139.562 64.7145 138.854 66.1305 137.438C67.5465 136.022 68.5984 133.716 69.2862 130.52C69.6503 128.821 69.8323 127.404 69.8323 126.272C69.8323 124.492 69.3873 123.237 68.4972 122.509C67.6072 121.781 66.1507 121.417 64.1278 121.417C61.579 121.417 59.5966 122.105 58.1806 123.48C56.7646 124.815 55.7127 127.162 55.0249 130.52C54.6608 132.138 54.4787 133.514 54.4787 134.646C54.4787 136.386 54.9238 137.64 55.8138 138.409C56.7444 139.178 58.221 139.562 60.2439 139.562Z" fill="white"/>
<path d="M103.323 150.607C99.5605 150.607 96.2632 150.04 93.4312 148.908C90.6396 147.734 88.4549 146.035 86.8771 143.81C85.2993 141.544 84.5103 138.773 84.5103 135.496C84.5103 133.959 84.6924 132.32 85.0565 130.58C86.4725 123.945 89.2843 118.908 93.4919 115.47C97.6995 112.031 103.809 110.311 111.819 110.311C114.206 110.311 116.33 110.493 118.191 110.857C120.093 111.222 121.853 111.747 123.471 112.435L121.043 123.784C119.425 122.934 117.807 122.327 116.188 121.963C114.611 121.558 112.669 121.356 110.363 121.356C107.086 121.356 104.436 122.064 102.413 123.48C100.39 124.856 99.0345 127.222 98.3468 130.58C98.2254 131.228 98.1243 131.835 98.0433 132.401C97.9624 132.967 97.922 133.493 97.922 133.979C97.922 136.042 98.5895 137.499 99.9246 138.348C101.3 139.157 103.525 139.562 106.6 139.562C108.583 139.562 110.524 139.38 112.426 139.016C114.368 138.611 116.33 138.004 118.313 137.195L115.885 148.604C113.984 149.252 112.021 149.737 109.999 150.061C108.016 150.425 105.791 150.607 103.323 150.607Z" fill="white"/>
<path d="M119.303 150L127.557 110.918H140.604L137.995 123.298L150.8 110.918H165.546L148.615 127.061L158.385 150H144.549L138.844 135.314L134.596 139.259L132.351 150H119.303Z" fill="white"/>
<path d="M172.945 150.607C170.315 150.607 167.807 150.384 165.42 149.939C163.033 149.494 161.071 148.867 159.534 148.058L161.718 137.863C163.418 138.753 165.339 139.481 167.483 140.047C169.668 140.614 171.711 140.897 173.613 140.897C175.231 140.897 176.505 140.735 177.436 140.412C178.407 140.088 178.973 139.481 179.135 138.591C179.337 137.58 178.832 136.851 177.618 136.406C176.404 135.921 174.624 135.253 172.278 134.404C169.648 133.433 167.645 132.239 166.27 130.823C164.894 129.367 164.206 127.506 164.206 125.24C164.206 124.309 164.328 123.339 164.571 122.327C165.461 118.12 167.443 115.065 170.518 113.163C173.633 111.262 178.083 110.311 183.869 110.311C185.244 110.311 186.681 110.412 188.177 110.615C189.715 110.776 191.171 110.999 192.547 111.282C193.922 111.525 195.075 111.808 196.006 112.132L193.821 122.388C191.96 121.579 190.2 121.012 188.542 120.689C186.883 120.324 185.345 120.142 183.929 120.142C182.918 120.142 181.947 120.203 181.016 120.324C180.086 120.405 179.317 120.628 178.71 120.992C178.144 121.316 177.861 121.842 177.861 122.57C177.861 123.217 178.326 123.723 179.257 124.087C180.228 124.411 181.745 124.876 183.808 125.483C187.247 126.494 189.614 127.85 190.908 129.549C192.243 131.248 192.911 133.17 192.911 135.314C192.911 136.366 192.79 137.438 192.547 138.53C191.778 142.171 189.796 145.105 186.6 147.33C183.444 149.514 178.892 150.607 172.945 150.607Z" fill="white"/>
<path d="M201.809 150L208.059 120.446H197.621L199.624 110.918H233.608L231.606 120.446H221.107L214.856 150H201.809Z" fill="white"/>
<path d="M221.326 150L244.569 110.918H258.223L265.02 150H251.972L250.577 142.232H239.956L235.344 150H221.326ZM243.476 133.129H250.819L249.12 123.662L243.476 133.129Z" fill="white"/>
<path d="M268.708 150L276.961 110.918H298.08C301.802 110.918 304.674 111.909 306.697 113.892C308.76 115.874 309.792 118.484 309.792 121.72C309.792 122.813 309.671 123.966 309.428 125.179C308.902 127.809 307.81 130.135 306.151 132.158C304.492 134.141 302.409 135.718 299.9 136.892C300.264 137.215 300.548 137.62 300.75 138.105C300.993 138.551 301.175 139.036 301.296 139.562L303.663 150H290.069L287.945 140.958C287.824 140.391 287.621 139.987 287.338 139.744C287.055 139.461 286.569 139.319 285.882 139.319H284L281.755 150H268.708ZM286.124 129.245H290.919C292.577 129.245 293.791 128.901 294.56 128.214C295.329 127.526 295.854 126.514 296.138 125.179C296.259 124.572 296.32 124.026 296.32 123.541C296.32 122.691 296.057 122.064 295.531 121.66C295.045 121.255 294.196 121.053 292.982 121.053H287.884L286.124 129.245Z" fill="white"/>
<path d="M320.808 150.607C318.179 150.607 315.67 150.384 313.283 149.939C310.896 149.494 308.934 148.867 307.397 148.058L309.582 137.863C311.281 138.753 313.202 139.481 315.347 140.047C317.531 140.614 319.575 140.897 321.476 140.897C323.094 140.897 324.369 140.735 325.299 140.412C326.27 140.088 326.837 139.481 326.998 138.591C327.201 137.58 326.695 136.851 325.481 136.406C324.268 135.921 322.487 135.253 320.141 134.404C317.511 133.433 315.509 132.239 314.133 130.823C312.757 129.367 312.07 127.506 312.07 125.24C312.07 124.309 312.191 123.339 312.434 122.327C313.324 118.12 315.306 115.065 318.381 113.163C321.496 111.262 325.947 110.311 331.732 110.311C333.108 110.311 334.544 110.412 336.041 110.615C337.578 110.776 339.035 110.999 340.41 111.282C341.786 111.525 342.939 111.808 343.869 112.132L341.685 122.388C339.823 121.579 338.064 121.012 336.405 120.689C334.746 120.324 333.209 120.142 331.793 120.142C330.781 120.142 329.81 120.203 328.88 120.324C327.949 120.405 327.181 120.628 326.574 120.992C326.007 121.316 325.724 121.842 325.724 122.57C325.724 123.217 326.189 123.723 327.12 124.087C328.091 124.411 329.608 124.876 331.671 125.483C335.11 126.494 337.477 127.85 338.772 129.549C340.107 131.248 340.774 133.17 340.774 135.314C340.774 136.366 340.653 137.438 340.41 138.53C339.641 142.171 337.659 145.105 334.463 147.33C331.307 149.514 326.756 150.607 320.808 150.607Z" fill="white"/>
<path d="M343.482 138.409L346.698 121.66L348.944 110.918H361.991L359.746 121.66L355.74 138.409H343.482ZM340.448 150L342.329 140.897H355.862L353.981 150H340.448Z" fill="white"/>
<path d="M126.794 105.969L130.538 90.4692L131.917 84.7286H141.965L126.794 105.969Z" fill="white"/>
<path d="M31.9404 19.448C30.6817 21.7093 29.4444 24.0773 28.2284 26.552C27.0337 29.0267 25.8604 31.4907 24.7084 33.944C24.4524 34.4987 24.3031 34.904 24.2604 35.16C24.2391 35.416 24.2817 35.576 24.3884 35.64C24.5164 35.6827 24.6871 35.6507 24.9004 35.544C25.1351 35.416 25.3697 35.256 25.6044 35.064C26.1591 34.6373 26.7991 34.104 27.5244 33.464C28.2711 32.8027 29.0071 32.12 29.7324 31.416C30.4577 30.712 31.1404 30.0187 31.7804 29.336C32.4204 28.632 32.9324 28.0027 33.3164 27.448C33.5724 27.0853 33.8391 26.8933 34.1164 26.872C34.3937 26.8507 34.6177 26.9573 34.7884 27.192C34.9591 27.4053 35.0551 27.736 35.0764 28.184C35.0977 28.632 34.9804 29.1333 34.7244 29.688C34.6391 29.8587 34.4044 30.232 34.0204 30.808C33.6364 31.3627 33.1351 32.0133 32.5164 32.76C31.8977 33.5067 31.1937 34.2853 30.4044 35.096C29.6364 35.8853 28.8151 36.5893 27.9404 37.208C27.0871 37.8267 26.2124 38.3067 25.3164 38.648C24.4204 38.9893 23.5671 39.064 22.7564 38.872C21.6257 38.616 20.9217 37.9973 20.6444 37.016C20.3884 36.0133 20.4737 34.808 20.9004 33.4C21.3697 31.864 21.9244 30.4133 22.5644 29.048C23.2257 27.6827 23.8551 26.4667 24.4524 25.4C25.0711 24.3333 25.6044 23.4373 26.0524 22.712C26.5217 21.9653 26.8204 21.464 26.9484 21.208C27.0551 20.9947 27.0657 20.8773 26.9804 20.856C26.9164 20.8347 26.8097 20.8667 26.6604 20.952C26.5111 21.016 26.3511 21.112 26.1804 21.24C26.0097 21.368 25.8817 21.464 25.7964 21.528C25.2844 21.8693 24.6551 22.36 23.9084 23C23.1831 23.6187 22.4044 24.3333 21.5724 25.144C20.7404 25.9547 19.8977 26.8293 19.0444 27.768C18.1911 28.7067 17.3911 29.656 16.6444 30.616C15.8977 31.576 15.2364 32.536 14.6604 33.496C14.0844 34.4347 13.6684 35.3093 13.4124 36.12C13.4124 36.184 13.4017 36.248 13.3804 36.312C13.3804 36.376 13.3804 36.44 13.3804 36.504C13.2737 37.528 13.0071 38.2213 12.5804 38.584C12.1537 38.9467 11.6844 38.9253 11.1724 38.52C10.8097 38.2213 10.5111 37.7947 10.2764 37.24C10.0204 36.6853 9.91374 35.864 9.95641 34.776C9.99908 33.24 10.3404 31.5867 10.9804 29.816C11.6204 28.0453 12.4524 26.232 13.4764 24.376C14.5004 22.52 15.6631 20.664 16.9644 18.808C18.2871 16.952 19.6311 15.1707 20.9964 13.464C22.3831 11.736 23.7484 10.1253 25.0924 8.63199C26.4364 7.11732 27.6417 5.79466 28.7084 4.66399C29.7964 3.53333 30.7031 2.61599 31.4284 1.91199C32.1537 1.20799 32.5911 0.80266 32.7404 0.695993C33.2737 0.311993 33.8284 0.109326 34.4044 0.0879917C34.9804 0.0666599 35.4604 0.162661 35.8444 0.375994C36.2497 0.567992 36.5057 0.855992 36.6124 1.23999C36.7191 1.60266 36.5591 1.97599 36.1324 2.35999C34.1271 4.19466 32.2177 6.09333 30.4044 8.05599C28.6124 9.99733 26.9377 11.9493 25.3804 13.912C23.8231 15.8747 22.4044 17.7947 21.1244 19.672C19.8444 21.5493 18.7351 23.32 17.7964 24.984C18.6284 23.9173 19.5457 22.8507 20.5484 21.784C21.5511 20.7173 22.5857 19.768 23.6524 18.936C24.7404 18.104 25.8497 17.4427 26.9804 16.952C28.1111 16.4613 29.2417 16.2587 30.3724 16.344C30.9911 16.3867 31.4497 16.5253 31.7484 16.76C32.0471 16.9947 32.2391 17.2613 32.3244 17.56C32.4097 17.8587 32.3991 18.1787 32.2924 18.52C32.2071 18.8613 32.0897 19.1707 31.9404 19.448Z" fill="white"/>
<path d="M48.0124 16.312C48.7377 16.312 49.3031 16.4613 49.7084 16.76C50.1137 17.0587 50.4124 17.4107 50.6044 17.816C50.7964 18.2 50.8924 18.6053 50.8924 19.032C50.8924 19.4373 50.8604 19.7573 50.7964 19.992C50.6471 20.4827 50.3484 21.1973 49.9004 22.136C49.4737 23.0533 48.8337 23.9707 47.9804 24.888C47.5111 25.3787 46.9351 25.9547 46.2524 26.616C45.5911 27.256 44.8657 27.8853 44.0764 28.504C43.2871 29.1227 42.4764 29.688 41.6444 30.2C40.8124 30.6907 40.0124 31.0427 39.2444 31.256C38.5831 31.448 38.0604 31.48 37.6764 31.352C37.3137 31.2027 37.0577 31.0107 36.9084 30.776C36.7591 30.52 36.7057 30.2747 36.7484 30.04C36.8124 29.784 36.9404 29.624 37.1324 29.56C37.7724 29.368 38.4231 29.0907 39.0844 28.728C39.7457 28.344 40.3857 27.928 41.0044 27.48C41.6444 27.032 42.2417 26.5627 42.7964 26.072C43.3511 25.5813 43.8417 25.1227 44.2684 24.696C44.7164 24.2693 45.0791 23.9173 45.3564 23.64C45.6337 23.3413 45.8044 23.1493 45.8684 23.064C46.2097 22.616 46.5191 22.1787 46.7964 21.752C47.0951 21.3253 47.2977 20.952 47.4044 20.632C47.5111 20.2907 47.4897 20.0347 47.3404 19.864C47.2124 19.6933 46.9137 19.64 46.4444 19.704C45.8044 19.8107 45.1004 20.1307 44.3324 20.664C43.5644 21.176 42.7751 21.816 41.9644 22.584C41.1751 23.352 40.3964 24.216 39.6284 25.176C38.8817 26.136 38.1991 27.1067 37.5804 28.088C36.9831 29.048 36.4924 29.9973 36.1084 30.936C35.7244 31.8533 35.5004 32.664 35.4364 33.368C35.3724 34.072 35.5004 34.6373 35.8204 35.064C36.1404 35.4693 36.7164 35.6507 37.5484 35.608C38.4871 35.5653 39.4471 35.32 40.4284 34.872C41.4311 34.4027 42.4124 33.8267 43.3724 33.144C44.3537 32.4613 45.2817 31.7253 46.1564 30.936C47.0311 30.1467 47.8204 29.4 48.5244 28.696C49.2497 27.992 49.8577 27.384 50.3484 26.872C50.8391 26.36 51.1804 26.04 51.3724 25.912C51.6497 25.7413 51.8737 25.72 52.0444 25.848C52.2151 25.976 52.3431 26.168 52.4284 26.424C52.5351 26.68 52.5884 26.9573 52.5884 27.256C52.6097 27.5547 52.6097 27.7893 52.5884 27.96C52.5671 28.088 52.3431 28.4293 51.9164 28.984C51.5111 29.5387 50.9457 30.2107 50.2204 31C49.4951 31.768 48.6417 32.6 47.6604 33.496C46.7004 34.3707 45.6551 35.2027 44.5244 35.992C43.3937 36.76 42.1991 37.432 40.9404 38.008C39.6817 38.5627 38.4231 38.8933 37.1644 39C35.9697 39.1067 34.9777 39 34.1884 38.68C33.4204 38.36 32.8124 37.9227 32.3644 37.368C31.9164 36.8133 31.6071 36.1947 31.4364 35.512C31.2657 34.808 31.2017 34.136 31.2444 33.496C31.2871 32.6213 31.5217 31.5973 31.9484 30.424C32.3751 29.2293 32.9617 28.0027 33.7084 26.744C34.4551 25.464 35.3297 24.2053 36.3324 22.968C37.3564 21.7093 38.4764 20.5893 39.6924 19.608C40.9297 18.6267 42.2417 17.8373 43.6284 17.24C45.0364 16.6213 46.4977 16.312 48.0124 16.312Z" fill="white"/>
<path d="M73.7879 2.74399C71.7399 4.51466 69.7666 6.40266 67.8679 8.40799C65.9906 10.392 64.2306 12.408 62.5879 14.456C60.9452 16.504 59.4412 18.52 58.0759 20.504C56.7319 22.488 55.5586 24.344 54.5559 26.072C53.5532 27.8 52.7426 29.3467 52.1239 30.712C51.5052 32.0773 51.1319 33.1547 51.0039 33.944C50.8972 34.5627 50.8332 35 50.8119 35.256C50.8119 35.512 50.8546 35.6613 50.9399 35.704C51.0252 35.7253 51.1426 35.672 51.2919 35.544C51.4626 35.416 51.6652 35.256 51.8999 35.064C52.4546 34.6373 53.0946 34.104 53.8199 33.464C54.5666 32.8027 55.3026 32.12 56.0279 31.416C56.7532 30.712 57.4359 30.0187 58.0759 29.336C58.7159 28.632 59.2279 28.0027 59.6119 27.448C59.8679 27.0853 60.1346 26.8933 60.4119 26.872C60.6892 26.8507 60.9132 26.9573 61.0839 27.192C61.2546 27.4053 61.3506 27.736 61.3719 28.184C61.3932 28.632 61.2759 29.1333 61.0199 29.688C60.9559 29.8587 60.7212 30.232 60.3159 30.808C59.9319 31.3627 59.4306 32.0133 58.8119 32.76C58.1932 33.5067 57.4892 34.2853 56.6999 35.096C55.9319 35.8853 55.1106 36.5893 54.2359 37.208C53.3826 37.8267 52.5079 38.3067 51.6119 38.648C50.7159 38.9893 49.8626 39.064 49.0519 38.872C48.4332 38.744 48.0172 38.4347 47.8039 37.944C47.5692 37.432 47.4199 36.8133 47.3559 36.088C47.2492 34.7653 47.4626 33.2613 47.9959 31.576C48.5079 29.8907 49.2439 28.12 50.2039 26.264C51.1639 24.3867 52.2839 22.4773 53.5639 20.536C54.8439 18.5947 56.1772 16.7067 57.5639 14.872C58.9719 13.016 60.3799 11.2667 61.7879 9.62399C63.1959 7.98133 64.5186 6.51999 65.7559 5.23999C66.9932 3.95999 68.0706 2.91466 68.9879 2.10399C69.9266 1.29333 70.6199 0.802659 71.0679 0.631994C71.7719 0.375992 72.3906 0.269325 72.9239 0.311991C73.4572 0.354659 73.8626 0.493326 74.1399 0.727991C74.4172 0.962659 74.5346 1.26133 74.4919 1.62399C74.4706 1.98666 74.2359 2.35999 73.7879 2.74399Z" fill="white"/>
<path d="M83.4442 2.74399C81.3962 4.51466 79.4228 6.40266 77.5242 8.40799C75.6468 10.392 73.8868 12.408 72.2442 14.456C70.6015 16.504 69.0975 18.52 67.7322 20.504C66.3882 22.488 65.2148 24.344 64.2122 26.072C63.2095 27.8 62.3988 29.3467 61.7802 30.712C61.1615 32.0773 60.7882 33.1547 60.6602 33.944C60.5535 34.5627 60.4895 35 60.4682 35.256C60.4682 35.512 60.5108 35.6613 60.5962 35.704C60.6815 35.7253 60.7988 35.672 60.9482 35.544C61.1188 35.416 61.3215 35.256 61.5562 35.064C62.1108 34.6373 62.7508 34.104 63.4762 33.464C64.2228 32.8027 64.9588 32.12 65.6842 31.416C66.4095 30.712 67.0922 30.0187 67.7322 29.336C68.3722 28.632 68.8842 28.0027 69.2682 27.448C69.5242 27.0853 69.7908 26.8933 70.0682 26.872C70.3455 26.8507 70.5695 26.9573 70.7402 27.192C70.9108 27.4053 71.0068 27.736 71.0282 28.184C71.0495 28.632 70.9322 29.1333 70.6762 29.688C70.6122 29.8587 70.3775 30.232 69.9722 30.808C69.5882 31.3627 69.0868 32.0133 68.4682 32.76C67.8495 33.5067 67.1455 34.2853 66.3562 35.096C65.5882 35.8853 64.7668 36.5893 63.8922 37.208C63.0388 37.8267 62.1642 38.3067 61.2682 38.648C60.3722 38.9893 59.5188 39.064 58.7082 38.872C58.0895 38.744 57.6735 38.4347 57.4602 37.944C57.2255 37.432 57.0762 36.8133 57.0122 36.088C56.9055 34.7653 57.1188 33.2613 57.6522 31.576C58.1642 29.8907 58.9002 28.12 59.8602 26.264C60.8202 24.3867 61.9402 22.4773 63.2202 20.536C64.5002 18.5947 65.8335 16.7067 67.2202 14.872C68.6282 13.016 70.0362 11.2667 71.4442 9.62399C72.8522 7.98133 74.1748 6.51999 75.4122 5.23999C76.6495 3.95999 77.7268 2.91466 78.6442 2.10399C79.5828 1.29333 80.2762 0.802659 80.7242 0.631994C81.4282 0.375992 82.0468 0.269325 82.5802 0.311991C83.1135 0.354659 83.5188 0.493326 83.7962 0.727991C84.0735 0.962659 84.1908 1.26133 84.1482 1.62399C84.1268 1.98666 83.8922 2.35999 83.4442 2.74399Z" fill="white"/>
<path d="M83.1164 22.616C83.5217 22.3387 84.0231 22.2213 84.6204 22.264C85.2177 22.2853 85.7617 22.424 86.2524 22.68C86.7431 22.9147 87.1164 23.2347 87.3724 23.64C87.6284 24.0453 87.6284 24.4613 87.3724 24.888C87.2871 25.016 87.1377 25.2507 86.9244 25.592C86.7111 25.9333 86.4551 26.328 86.1564 26.776C85.8791 27.224 85.5911 27.704 85.2924 28.216C85.0151 28.7067 84.7697 29.1653 84.5564 29.592C84.3644 29.9973 84.2257 30.3493 84.1404 30.648C84.0551 30.9253 84.0764 31.0853 84.2044 31.128C84.6524 31.256 85.1751 31.224 85.7724 31.032C86.3697 30.84 86.9777 30.5413 87.5964 30.136C88.2364 29.7093 88.8551 29.208 89.4524 28.632C90.0497 28.0347 90.5724 27.4053 91.0204 26.744C91.2124 26.4667 91.4364 26.36 91.6924 26.424C91.9697 26.4667 92.2044 26.616 92.3964 26.872C92.5884 27.1067 92.7164 27.416 92.7804 27.8C92.8444 28.184 92.7697 28.568 92.5564 28.952C92.2364 29.528 91.7137 30.1787 90.9884 30.904C90.2844 31.608 89.4631 32.248 88.5244 32.824C87.6071 33.3787 86.6044 33.7947 85.5164 34.072C84.4497 34.328 83.4044 34.2853 82.3804 33.944C81.9324 33.7947 81.5271 33.5707 81.1644 33.272C80.5671 33.9547 79.9271 34.616 79.2444 35.256C78.5831 35.896 77.9004 36.472 77.1964 36.984C76.4924 37.496 75.7671 37.9227 75.0204 38.264C74.2737 38.584 73.5164 38.7867 72.7484 38.872C72.4924 38.8933 72.1617 38.9147 71.7564 38.936C71.3724 38.936 70.9564 38.8933 70.5084 38.808C70.0604 38.7013 69.6124 38.5307 69.1644 38.296C68.7377 38.0613 68.3537 37.72 68.0124 37.272C67.6924 36.824 67.4471 36.248 67.2764 35.544C67.1057 34.8187 67.0631 33.9227 67.1484 32.856C67.2124 31.9813 67.4577 30.9893 67.8844 29.88C68.3111 28.7493 68.8764 27.5973 69.5804 26.424C70.2844 25.2507 71.0951 24.0987 72.0124 22.968C72.9511 21.8373 73.9644 20.824 75.0524 19.928C76.1404 19.032 77.2817 18.296 78.4764 17.72C79.6924 17.144 80.9297 16.824 82.1884 16.76C83.0631 16.7173 83.8097 16.7707 84.4284 16.92C85.0684 17.0693 85.5911 17.272 85.9964 17.528C86.4017 17.784 86.7004 18.0827 86.8924 18.424C87.1057 18.7653 87.2231 19.1067 87.2444 19.448C87.2657 19.832 87.2017 20.1947 87.0524 20.536C86.9244 20.8773 86.7537 21.1653 86.5404 21.4C86.3271 21.6347 86.1031 21.784 85.8684 21.848C85.6551 21.912 85.4844 21.8587 85.3564 21.688C84.9297 21.112 84.3857 20.7387 83.7244 20.568C83.0631 20.376 82.3911 20.3653 81.7084 20.536C80.5351 20.8347 79.4471 21.3147 78.4444 21.976C77.4631 22.616 76.5671 23.352 75.7564 24.184C74.9671 25.016 74.2631 25.8907 73.6444 26.808C73.0257 27.7253 72.5031 28.6107 72.0764 29.464C71.6711 30.3173 71.3511 31.0853 71.1164 31.768C70.8817 32.4507 70.7537 32.9733 70.7324 33.336C70.6897 33.848 70.7324 34.264 70.8604 34.584C71.0097 34.904 71.1911 35.16 71.4044 35.352C71.6391 35.5227 71.8844 35.64 72.1404 35.704C72.3964 35.768 72.6204 35.8 72.8124 35.8C73.3031 35.7787 73.8364 35.608 74.4124 35.288C75.0097 34.9467 75.6071 34.5093 76.2044 33.976C76.8231 33.4213 77.4417 32.8027 78.0604 32.12C78.6791 31.4373 79.2764 30.744 79.8524 30.04C79.8097 29.3787 79.8524 28.6853 79.9804 27.96C80.1297 27.2347 80.3431 26.5413 80.6204 25.88C80.9191 25.1973 81.2711 24.5787 81.6764 24.024C82.1031 23.448 82.5831 22.9787 83.1164 22.616Z" fill="white"/>
</svg>
