<svg width="312" height="60" viewBox="0 0 312 60" fill="none" xmlns="http://www.w3.org/2000/svg">
<path d="M0.0290214 49L8.28234 9.91811H21.3299L13.0765 49H0.0290214ZM25.9965 49L32.2472 19.4458H21.8092L23.8118 9.91811H57.7961L55.7934 19.4458H45.2947L39.0441 49H25.9965ZM51.9441 49L60.1975 9.91811H73.245L64.9917 49H51.9441ZM69.9011 49L78.1544 9.91811H89.1386L98.1808 27.9419L102.004 9.91811H115.052L106.798 49H95.6927L86.7111 31.0369L82.9486 49H69.9011ZM111.741 49L119.995 9.91811H150.398L148.396 19.5672H131.04L129.947 24.5435H145.058L142.995 34.4353H127.884L126.791 39.3509H144.148L142.145 49H111.741ZM145.522 49L153.775 9.91811H174.894C178.616 9.91811 181.488 10.9093 183.511 12.8917C185.575 14.8742 186.606 17.4837 186.606 20.7202C186.606 21.8126 186.485 22.9656 186.242 24.1794C185.716 26.8091 184.624 29.1354 182.965 31.1583C181.306 33.1407 179.223 34.7185 176.714 35.8918C177.079 36.2154 177.362 36.62 177.564 37.1055C177.807 37.5505 177.989 38.036 178.11 38.562L180.477 49H166.883L164.759 39.9578C164.638 39.3914 164.436 38.9868 164.152 38.744C163.869 38.4608 163.384 38.3192 162.696 38.3192H160.815L158.569 49H145.522ZM162.939 28.2453H167.733C169.392 28.2453 170.605 27.9014 171.374 27.2137C172.143 26.5259 172.669 25.5145 172.952 24.1794C173.073 23.5725 173.134 23.0263 173.134 22.5408C173.134 21.6912 172.871 21.0641 172.345 20.6596C171.86 20.255 171.01 20.0527 169.796 20.0527H164.699L162.939 28.2453ZM180.635 49L203.878 9.91811H217.532L224.329 49H211.282L209.886 41.2322H199.266L194.654 49H180.635ZM202.786 32.1292H210.129L208.43 22.6622L202.786 32.1292ZM228.017 49L236.27 9.91811H257.389C261.111 9.91811 263.984 10.9093 266.007 12.8917C268.07 14.8742 269.101 17.4837 269.101 20.7202C269.101 21.8126 268.98 22.9656 268.737 24.1794C268.211 26.8091 267.119 29.1354 265.46 31.1583C263.802 33.1407 261.718 34.7185 259.21 35.8918C259.574 36.2154 259.857 36.62 260.059 37.1055C260.302 37.5505 260.484 38.036 260.605 38.562L262.972 49H249.378L247.254 39.9578C247.133 39.3914 246.931 38.9868 246.648 38.744C246.364 38.4608 245.879 38.3192 245.191 38.3192H243.31L241.064 49H228.017ZM245.434 28.2453H250.228C251.887 28.2453 253.101 27.9014 253.869 27.2137C254.638 26.5259 255.164 25.5145 255.447 24.1794C255.568 23.5725 255.629 23.0263 255.629 22.5408C255.629 21.6912 255.366 21.0641 254.84 20.6596C254.355 20.255 253.505 20.0527 252.291 20.0527H247.194L245.434 28.2453ZM276.026 49L278.999 34.7388L270.2 9.91811H283.43L287.617 23.5118L297.509 9.91811H311.467L292.047 34.7388L289.073 49H276.026Z" fill="white"/>
<path d="M31 59.9687L34.7436 44.4691L36.1229 38.7285H46.1715L31 59.9687Z" fill="white"/>
</svg>
