<svg width="287" height="114" viewBox="0 0 287 114" fill="none" xmlns="http://www.w3.org/2000/svg">
<path d="M7.03959 101.188L13.2903 71.6338H2.85225L4.85489 62.1061H38.8391L36.8365 71.6338H26.3378L20.0871 101.188H7.03959ZM32.9872 101.188L41.2405 62.1061H54.288L51.4358 75.7605H63.0268L65.8791 62.1061H78.9266L70.6733 101.188H57.6258L60.478 87.5336H48.887L46.0347 101.188H32.9872ZM75.5979 101.188L83.8512 62.1061H114.255L112.252 71.7552H94.8961L93.8037 76.7315H108.915L106.851 86.6233H91.7404L90.6481 91.5389H108.004L106.002 101.188H75.5979ZM129.834 101.188L136.085 71.6338H125.647L127.65 62.1061H161.634L159.631 71.6338H149.132L142.882 101.188H129.834ZM155.782 101.188L164.035 62.1061H194.439L192.436 71.7552H175.08L173.988 76.7315H189.099L187.035 86.6233H171.924L170.832 91.5389H188.188L186.186 101.188H155.782ZM188.288 101.188L211.531 62.1061H225.185L231.982 101.188H218.934L217.539 93.4202H206.918L202.306 101.188H188.288ZM210.438 84.3172H217.781L216.082 74.8502L210.438 84.3172ZM235.669 101.188L243.923 62.1061H255.999L261.036 80.1299L273.598 62.1061H286.524L278.271 101.188H265.224L268.743 84.56L261.765 94.5125H254.968L252.237 84.56L248.717 101.188H235.669Z" fill="white"/>
<path d="M134.166 113.157L137.91 97.6571L139.289 91.9165H149.338L134.166 113.157Z" fill="white"/>
<path d="M23.976 25.86C24.616 25.7533 25.1493 25.8493 25.576 26.148C26.024 26.4253 26.3653 26.7667 26.6 27.172C26.8347 27.556 26.952 27.94 26.952 28.324C26.9733 28.6867 26.8773 28.9 26.664 28.964C26.4507 29.028 26.0667 29.1987 25.512 29.476C24.9787 29.732 24.4027 30.0947 23.784 30.564C23.1867 31.012 22.6213 31.5667 22.088 32.228C21.5547 32.868 21.2027 33.604 21.032 34.436C20.968 34.7773 20.9253 35.2467 20.904 35.844C20.8827 36.4413 20.8827 37.1027 20.904 37.828C20.9253 38.532 20.9573 39.2787 21 40.068C21.0427 40.8573 21.0853 41.604 21.128 42.308C21.1707 43.012 21.2027 43.6627 21.224 44.26C21.2667 44.836 21.288 45.2733 21.288 45.572C21.3093 46.724 21.16 47.748 20.84 48.644C20.52 49.54 20.0827 50.3187 19.528 50.98C18.9947 51.6413 18.376 52.1853 17.672 52.612C16.9893 53.0387 16.2747 53.348 15.528 53.54C14.8027 53.7533 14.0773 53.86 13.352 53.86C12.648 53.8813 12.0187 53.796 11.464 53.604C10.7813 53.3907 10.184 53.0813 9.672 52.676C9.16 52.2707 8.73333 51.8227 8.392 51.332C8.05067 50.8413 7.79467 50.3187 7.624 49.764C7.45333 49.2093 7.38933 48.6653 7.432 48.132C7.47467 47.3213 7.63467 46.5107 7.912 45.7C8.18933 44.868 8.552 44.0893 9 43.364C9.42667 42.6173 9.928 41.956 10.504 41.38C11.1013 40.7827 11.7307 40.3027 12.392 39.94C12.8187 39.7267 13.288 39.716 13.8 39.908C14.312 40.0787 14.76 40.3347 15.144 40.676C15.528 40.996 15.7947 41.3267 15.944 41.668C16.0933 42.0093 16.0293 42.2333 15.752 42.34C14.6 42.7667 13.6507 43.4173 12.904 44.292C12.1787 45.1667 11.6987 46.0627 11.464 46.98C11.2507 47.876 11.2933 48.676 11.592 49.38C11.8907 50.0627 12.4987 50.436 13.416 50.5C13.864 50.5427 14.2907 50.4787 14.696 50.308C15.1227 50.1373 15.496 49.892 15.816 49.572C16.1573 49.252 16.4453 48.868 16.68 48.42C16.936 47.972 17.1173 47.492 17.224 46.98C17.416 46.0627 17.4907 45.0387 17.448 43.908C17.4053 42.7773 17.32 41.6573 17.192 40.548C17.0853 39.4173 16.9787 38.3507 16.872 37.348C16.7653 36.324 16.744 35.4493 16.808 34.724C16.8933 33.8493 17.0853 33.0387 17.384 32.292C17.704 31.524 18.088 30.82 18.536 30.18C18.984 29.5187 19.464 28.932 19.976 28.42C20.5093 27.908 21.032 27.4707 21.544 27.108C22.056 26.7453 22.5253 26.4573 22.952 26.244C23.3787 26.0307 23.72 25.9027 23.976 25.86ZM39.0788 39.236C39.6548 38.724 40.2414 38.3933 40.8388 38.244C41.4361 38.0733 41.9481 38.02 42.3748 38.084C42.8228 38.148 43.1534 38.276 43.3668 38.468C43.5801 38.6387 43.6014 38.7987 43.4308 38.948C43.2601 39.0973 43.0468 39.364 42.7908 39.748C42.5561 40.132 42.2894 40.5907 41.9908 41.124C41.7134 41.6573 41.4148 42.244 41.0948 42.884C40.7748 43.5027 40.4548 44.132 40.1348 44.772C39.8148 45.3907 39.5161 45.9987 39.2388 46.596C38.9614 47.172 38.7161 47.684 38.5028 48.132C38.2468 48.6867 38.0974 49.092 38.0548 49.348C38.0334 49.604 38.0761 49.764 38.1828 49.828C38.3108 49.8707 38.4814 49.8387 38.6948 49.732C38.9294 49.604 39.1641 49.444 39.3988 49.252C39.9534 48.8253 40.5934 48.292 41.3188 47.652C42.0654 46.9907 42.8014 46.308 43.5268 45.604C44.2521 44.9 44.9348 44.2067 45.5748 43.524C46.2148 42.82 46.7268 42.1907 47.1108 41.636C47.3668 41.2733 47.6334 41.0813 47.9108 41.06C48.1881 41.0387 48.4121 41.1453 48.5828 41.38C48.7534 41.5933 48.8494 41.924 48.8708 42.372C48.8921 42.82 48.7748 43.3213 48.5188 43.876C48.4548 44.0467 48.2201 44.42 47.8148 44.996C47.4308 45.5507 46.9294 46.2013 46.3108 46.948C45.6921 47.6947 44.9881 48.4733 44.1988 49.284C43.4308 50.0733 42.6094 50.7773 41.7348 51.396C40.8814 52.0147 40.0068 52.4947 39.1108 52.836C38.2148 53.1773 37.3614 53.252 36.5508 53.06C35.7188 52.868 35.1641 52.4413 34.8868 51.78C34.6094 51.0973 34.5134 50.2867 34.5988 49.348C34.0441 49.86 33.4788 50.3507 32.9028 50.82C32.3268 51.2893 31.7508 51.7053 31.1748 52.068C30.5988 52.4093 30.0228 52.6867 29.4468 52.9C28.8921 53.092 28.3481 53.188 27.8148 53.188C27.1748 53.188 26.5988 53.0707 26.0868 52.836C25.5748 52.58 25.1374 52.26 24.7747 51.876C24.4334 51.4707 24.1668 51.012 23.9748 50.5C23.8041 49.9667 23.7188 49.412 23.7188 48.836C23.7401 47.108 24.0281 45.4653 24.5828 43.908C25.1588 42.3293 25.8841 40.868 26.7588 39.524C27.6334 38.18 28.6254 36.9747 29.7348 35.908C30.8441 34.8413 31.9534 33.9347 33.0628 33.188C34.1721 32.4413 35.2281 31.876 36.2308 31.492C37.2334 31.0867 38.0868 30.8947 38.7908 30.916C39.6228 30.9373 40.3374 31.0973 40.9348 31.396C41.5321 31.6733 42.0228 32.0253 42.4068 32.452C42.7908 32.8573 43.0788 33.3053 43.2708 33.796C43.4628 34.2653 43.5694 34.724 43.5908 35.172C43.6334 35.5987 43.6014 35.972 43.4948 36.292C43.3881 36.5907 43.2281 36.772 43.0148 36.836C42.4814 37.0067 42.0761 36.996 41.7987 36.804C41.5214 36.5907 41.2548 36.324 40.9988 36.004C40.7641 35.684 40.4761 35.3747 40.1348 35.076C39.7934 34.7773 39.2921 34.6173 38.6308 34.596C37.8841 34.5747 37.1054 34.7667 36.2948 35.172C35.4841 35.556 34.6841 36.0787 33.8948 36.74C33.1268 37.4013 32.3801 38.1587 31.6548 39.012C30.9508 39.8653 30.3214 40.7613 29.7668 41.7C29.2121 42.6173 28.7534 43.5347 28.3908 44.452C28.0281 45.3693 27.8041 46.212 27.7188 46.98C27.6121 47.9613 27.6974 48.6227 27.9748 48.964C28.2521 49.284 28.6468 49.3693 29.1588 49.22C29.6921 49.0493 30.3108 48.6867 31.0148 48.132C31.7401 47.556 32.4974 46.8733 33.2868 46.084C34.0974 45.2733 34.9081 44.388 35.7188 43.428C36.5508 42.4467 37.3401 41.476 38.0868 40.516C38.4708 39.8973 38.8014 39.4707 39.0788 39.236ZM53.247 31.876C53.823 31.364 54.4203 31.0227 55.039 30.852C55.6577 30.6813 56.2017 30.6173 56.671 30.66C57.1403 30.6813 57.4923 30.788 57.727 30.98C57.983 31.1507 58.0363 31.3213 57.887 31.492C57.4177 32.0467 56.895 32.7507 56.319 33.604C55.743 34.436 55.1457 35.3533 54.527 36.356C53.9297 37.3587 53.3323 38.4147 52.735 39.524C52.1377 40.612 51.5723 41.6787 51.039 42.724C50.5057 43.7693 50.0257 44.7613 49.599 45.7C49.1937 46.6387 48.863 47.4493 48.607 48.132C48.287 48.9853 48.2337 49.4973 48.447 49.668C48.6817 49.8387 49.087 49.764 49.663 49.444C50.239 49.1027 50.9323 48.5587 51.743 47.812C52.575 47.0653 53.439 46.212 54.335 45.252C55.231 44.2707 56.1057 43.2253 56.959 42.116C57.8337 41.0067 58.591 39.9187 59.231 38.852C59.7857 37.6573 60.319 36.5267 60.831 35.46C61.3643 34.372 61.9083 33.3373 62.463 32.356C62.719 31.8867 63.135 31.5453 63.711 31.332C64.287 31.0973 64.8523 30.9693 65.407 30.948C65.983 30.9267 66.463 30.9907 66.847 31.14C67.2523 31.2893 67.4123 31.492 67.327 31.748C66.7297 33.092 66.015 34.6493 65.183 36.42C64.351 38.1693 63.4657 40.0147 62.527 41.956C61.5883 43.8973 60.607 45.8707 59.583 47.876C58.5803 49.8813 57.599 51.7907 56.639 53.604C57.663 53.7747 58.6123 54.1053 59.487 54.596C60.383 55.0867 61.0337 55.7907 61.439 56.708C61.631 57.156 61.7377 57.5827 61.759 57.988C61.7803 58.3933 61.727 58.7133 61.599 58.948C61.471 59.1827 61.2683 59.3 60.991 59.3C60.735 59.3213 60.415 59.1613 60.031 58.82C59.4337 58.2867 58.687 57.86 57.791 57.54C56.9163 57.22 55.935 57.0067 54.847 56.9C54.3563 57.7747 53.887 58.5747 53.439 59.3C53.0123 60.0467 52.6177 60.7293 52.255 61.348C50.975 63.396 49.6097 65.1133 48.159 66.5C46.7297 67.908 45.3217 69.0067 43.935 69.796C42.527 70.6067 41.2043 71.1187 39.967 71.332C38.7083 71.5453 37.6203 71.4813 36.703 71.14C35.7857 70.82 35.0923 70.2227 34.623 69.348C34.1323 68.4947 33.9617 67.3853 34.111 66.02C34.175 65.444 34.3777 64.7613 34.719 63.972C35.0603 63.1827 35.551 62.3507 36.191 61.476C36.831 60.6227 37.631 59.7587 38.591 58.884C39.551 58.0307 40.703 57.2413 42.047 56.516C43.3697 55.7907 44.8737 55.1613 46.559 54.628C48.2657 54.116 50.1857 53.764 52.319 53.572C52.6603 52.932 52.991 52.292 53.311 51.652C53.631 50.9907 53.951 50.34 54.271 49.7C53.6737 50.2547 53.0443 50.7667 52.383 51.236C51.743 51.7053 51.0923 52.1 50.431 52.42C49.791 52.74 49.1403 52.964 48.479 53.092C47.839 53.1987 47.2097 53.188 46.591 53.06C45.695 52.8467 45.119 52.356 44.863 51.588C44.607 50.82 44.5643 49.9027 44.735 48.836C44.927 47.5773 45.3003 46.1693 45.855 44.612C46.431 43.0547 47.1137 41.4973 47.903 39.94C48.6923 38.3613 49.5457 36.868 50.463 35.46C51.4017 34.0307 52.3297 32.836 53.247 31.876ZM50.463 56.996C49.2043 57.188 47.9457 57.4973 46.687 57.924C45.4283 58.3507 44.2443 58.9053 43.135 59.588C42.0043 60.292 40.991 61.124 40.095 62.084C39.1777 63.0653 38.4523 64.1853 37.919 65.444C37.5137 66.3827 37.4177 67.044 37.631 67.428C37.8443 67.8333 38.2497 68.0573 38.847 68.1C39.7857 68.1853 40.7457 67.9613 41.727 67.428C42.687 66.916 43.647 66.18 44.607 65.22C45.5457 64.26 46.4737 63.1293 47.391 61.828C48.3297 60.548 49.2257 59.172 50.079 57.7L50.463 56.996ZM95.687 33.636C94.4283 35.8973 93.191 38.2653 91.975 40.74C90.7803 43.2147 89.607 45.6787 88.455 48.132C88.199 48.6867 88.0497 49.092 88.007 49.348C87.9857 49.604 88.0283 49.764 88.135 49.828C88.263 49.8707 88.4337 49.8387 88.647 49.732C88.8817 49.604 89.1163 49.444 89.351 49.252C89.9057 48.8253 90.5457 48.292 91.271 47.652C92.0177 46.9907 92.7537 46.308 93.479 45.604C94.2043 44.9 94.887 44.2067 95.527 43.524C96.167 42.82 96.679 42.1907 97.063 41.636C97.319 41.2733 97.5857 41.0813 97.863 41.06C98.1403 41.0387 98.3643 41.1453 98.535 41.38C98.7057 41.5933 98.8017 41.924 98.823 42.372C98.8443 42.82 98.727 43.3213 98.471 43.876C98.3857 44.0467 98.151 44.42 97.767 44.996C97.383 45.5507 96.8817 46.2013 96.263 46.948C95.6443 47.6947 94.9403 48.4733 94.151 49.284C93.383 50.0733 92.5617 50.7773 91.687 51.396C90.8337 52.0147 89.959 52.4947 89.063 52.836C88.167 53.1773 87.3137 53.252 86.503 53.06C85.3723 52.804 84.6683 52.1853 84.391 51.204C84.135 50.2013 84.2203 48.996 84.647 47.588C85.1163 46.052 85.671 44.6013 86.311 43.236C86.9723 41.8707 87.6017 40.6547 88.199 39.588C88.8177 38.5213 89.351 37.6253 89.799 36.9C90.2683 36.1533 90.567 35.652 90.695 35.396C90.8017 35.1827 90.8123 35.0653 90.727 35.044C90.663 35.0227 90.5563 35.0547 90.407 35.14C90.2577 35.204 90.0977 35.3 89.927 35.428C89.7563 35.556 89.6283 35.652 89.543 35.716C89.031 36.0573 88.4017 36.548 87.655 37.188C86.9297 37.8067 86.151 38.5213 85.319 39.332C84.487 40.1427 83.6443 41.0173 82.791 41.956C81.9377 42.8947 81.1377 43.844 80.391 44.804C79.6443 45.764 78.983 46.724 78.407 47.684C77.831 48.6227 77.415 49.4973 77.159 50.308C77.159 50.372 77.1483 50.436 77.127 50.5C77.127 50.564 77.127 50.628 77.127 50.692C77.0203 51.716 76.7537 52.4093 76.327 52.772C75.9003 53.1347 75.431 53.1133 74.919 52.708C74.5563 52.4093 74.2577 51.9827 74.023 51.428C73.767 50.8733 73.6603 50.052 73.703 48.964C73.7457 47.428 74.087 45.7747 74.727 44.004C75.367 42.2333 76.199 40.42 77.223 38.564C78.247 36.708 79.4097 34.852 80.711 32.996C82.0337 31.14 83.3777 29.3587 84.743 27.652C86.1297 25.924 87.495 24.3133 88.839 22.82C90.183 21.3053 91.3883 19.9827 92.455 18.852C93.543 17.7213 94.4497 16.804 95.175 16.1C95.9003 15.396 96.3377 14.9907 96.487 14.884C97.0203 14.5 97.575 14.2973 98.151 14.276C98.727 14.2547 99.207 14.3507 99.591 14.564C99.9963 14.756 100.252 15.044 100.359 15.428C100.466 15.7907 100.306 16.164 99.879 16.548C97.8737 18.3827 95.9643 20.2813 94.151 22.244C92.359 24.1853 90.6843 26.1373 89.127 28.1C87.5697 30.0627 86.151 31.9827 84.871 33.86C83.591 35.7373 82.4817 37.508 81.543 39.172C82.375 38.1053 83.2923 37.0387 84.295 35.972C85.2977 34.9053 86.3323 33.956 87.399 33.124C88.487 32.292 89.5963 31.6307 90.727 31.14C91.8577 30.6493 92.9883 30.4467 94.119 30.532C94.7377 30.5747 95.1963 30.7133 95.495 30.948C95.7937 31.1827 95.9857 31.4493 96.071 31.748C96.1563 32.0467 96.1457 32.3667 96.039 32.708C95.9537 33.0493 95.8363 33.3587 95.687 33.636ZM111.759 30.5C112.484 30.5 113.05 30.6493 113.455 30.948C113.86 31.2467 114.159 31.5987 114.351 32.004C114.543 32.388 114.639 32.7933 114.639 33.22C114.639 33.6253 114.607 33.9453 114.543 34.18C114.394 34.6707 114.095 35.3853 113.647 36.324C113.22 37.2413 112.58 38.1587 111.727 39.076C111.258 39.5667 110.682 40.1427 109.999 40.804C109.338 41.444 108.612 42.0733 107.823 42.692C107.034 43.3107 106.223 43.876 105.391 44.388C104.559 44.8787 103.759 45.2307 102.991 45.444C102.33 45.636 101.807 45.668 101.423 45.54C101.06 45.3907 100.804 45.1987 100.655 44.964C100.506 44.708 100.452 44.4627 100.495 44.228C100.559 43.972 100.687 43.812 100.879 43.748C101.519 43.556 102.17 43.2787 102.831 42.916C103.492 42.532 104.132 42.116 104.751 41.668C105.391 41.22 105.988 40.7507 106.543 40.26C107.098 39.7693 107.588 39.3107 108.015 38.884C108.463 38.4573 108.826 38.1053 109.103 37.828C109.38 37.5293 109.551 37.3373 109.615 37.252C109.956 36.804 110.266 36.3667 110.543 35.94C110.842 35.5133 111.044 35.14 111.151 34.82C111.258 34.4787 111.236 34.2227 111.087 34.052C110.959 33.8813 110.66 33.828 110.191 33.892C109.551 33.9987 108.847 34.3187 108.079 34.852C107.311 35.364 106.522 36.004 105.711 36.772C104.922 37.54 104.143 38.404 103.375 39.364C102.628 40.324 101.946 41.2947 101.327 42.276C100.73 43.236 100.239 44.1853 99.855 45.124C99.471 46.0413 99.247 46.852 99.183 47.556C99.119 48.26 99.247 48.8253 99.567 49.252C99.887 49.6573 100.463 49.8387 101.295 49.796C102.234 49.7533 103.194 49.508 104.175 49.06C105.178 48.5907 106.159 48.0147 107.119 47.332C108.1 46.6493 109.028 45.9133 109.903 45.124C110.778 44.3347 111.567 43.588 112.271 42.884C112.996 42.18 113.604 41.572 114.095 41.06C114.586 40.548 114.927 40.228 115.119 40.1C115.396 39.9293 115.62 39.908 115.791 40.036C115.962 40.164 116.09 40.356 116.175 40.612C116.282 40.868 116.335 41.1453 116.335 41.444C116.356 41.7427 116.356 41.9773 116.335 42.148C116.314 42.276 116.09 42.6173 115.663 43.172C115.258 43.7267 114.692 44.3987 113.967 45.188C113.242 45.956 112.388 46.788 111.407 47.684C110.447 48.5587 109.402 49.3907 108.271 50.18C107.14 50.948 105.946 51.62 104.687 52.196C103.428 52.7507 102.17 53.0813 100.911 53.188C99.7163 53.2947 98.7243 53.188 97.935 52.868C97.167 52.548 96.559 52.1107 96.111 51.556C95.663 51.0013 95.3537 50.3827 95.183 49.7C95.0123 48.996 94.9483 48.324 94.991 47.684C95.0337 46.8093 95.2683 45.7853 95.695 44.612C96.1217 43.4173 96.7083 42.1907 97.455 40.932C98.2017 39.652 99.0763 38.3933 100.079 37.156C101.103 35.8973 102.223 34.7773 103.439 33.796C104.676 32.8147 105.988 32.0253 107.375 31.428C108.783 30.8093 110.244 30.5 111.759 30.5ZM137.535 16.932C135.487 18.7027 133.513 20.5907 131.615 22.596C129.737 24.58 127.977 26.596 126.335 28.644C124.692 30.692 123.188 32.708 121.823 34.692C120.479 36.676 119.305 38.532 118.303 40.26C117.3 41.988 116.489 43.5347 115.871 44.9C115.252 46.2653 114.879 47.3427 114.751 48.132C114.644 48.7507 114.58 49.188 114.559 49.444C114.559 49.7 114.601 49.8493 114.687 49.892C114.772 49.9133 114.889 49.86 115.039 49.732C115.209 49.604 115.412 49.444 115.647 49.252C116.201 48.8253 116.841 48.292 117.567 47.652C118.313 46.9907 119.049 46.308 119.775 45.604C120.5 44.9 121.183 44.2067 121.823 43.524C122.463 42.82 122.975 42.1907 123.359 41.636C123.615 41.2733 123.881 41.0813 124.159 41.06C124.436 41.0387 124.66 41.1453 124.831 41.38C125.001 41.5933 125.097 41.924 125.119 42.372C125.14 42.82 125.023 43.3213 124.767 43.876C124.703 44.0467 124.468 44.42 124.063 44.996C123.679 45.5507 123.177 46.2013 122.559 46.948C121.94 47.6947 121.236 48.4733 120.447 49.284C119.679 50.0733 118.857 50.7773 117.983 51.396C117.129 52.0147 116.255 52.4947 115.359 52.836C114.463 53.1773 113.609 53.252 112.799 53.06C112.18 52.932 111.764 52.6227 111.55 52.132C111.316 51.62 111.166 51.0013 111.102 50.276C110.996 48.9533 111.209 47.4493 111.742 45.764C112.255 44.0787 112.991 42.308 113.951 40.452C114.911 38.5747 116.031 36.6653 117.311 34.724C118.591 32.7827 119.924 30.8947 121.311 29.06C122.719 27.204 124.127 25.4547 125.535 23.812C126.943 22.1693 128.265 20.708 129.503 19.428C130.74 18.148 131.817 17.1027 132.735 16.292C133.673 15.4813 134.367 14.9907 134.815 14.82C135.519 14.564 136.137 14.4573 136.671 14.5C137.204 14.5427 137.609 14.6813 137.887 14.916C138.164 15.1507 138.281 15.4493 138.239 15.812C138.217 16.1747 137.983 16.548 137.535 16.932ZM147.191 16.932C145.143 18.7027 143.169 20.5907 141.271 22.596C139.393 24.58 137.633 26.596 135.991 28.644C134.348 30.692 132.844 32.708 131.479 34.692C130.135 36.676 128.961 38.532 127.959 40.26C126.956 41.988 126.145 43.5347 125.527 44.9C124.908 46.2653 124.535 47.3427 124.407 48.132C124.3 48.7507 124.236 49.188 124.215 49.444C124.215 49.7 124.257 49.8493 124.343 49.892C124.428 49.9133 124.545 49.86 124.695 49.732C124.865 49.604 125.068 49.444 125.303 49.252C125.857 48.8253 126.497 48.292 127.223 47.652C127.969 46.9907 128.705 46.308 129.431 45.604C130.156 44.9 130.839 44.2067 131.479 43.524C132.119 42.82 132.631 42.1907 133.015 41.636C133.271 41.2733 133.537 41.0813 133.815 41.06C134.092 41.0387 134.316 41.1453 134.487 41.38C134.657 41.5933 134.753 41.924 134.775 42.372C134.796 42.82 134.679 43.3213 134.423 43.876C134.359 44.0467 134.124 44.42 133.719 44.996C133.335 45.5507 132.833 46.2013 132.215 46.948C131.596 47.6947 130.892 48.4733 130.103 49.284C129.335 50.0733 128.513 50.7773 127.639 51.396C126.785 52.0147 125.911 52.4947 125.015 52.836C124.119 53.1773 123.265 53.252 122.455 53.06C121.836 52.932 121.42 52.6227 121.207 52.132C120.972 51.62 120.823 51.0013 120.759 50.276C120.652 48.9533 120.865 47.4493 121.399 45.764C121.911 44.0787 122.647 42.308 123.607 40.452C124.567 38.5747 125.687 36.6653 126.967 34.724C128.247 32.7827 129.58 30.8947 130.967 29.06C132.375 27.204 133.783 25.4547 135.191 23.812C136.599 22.1693 137.921 20.708 139.159 19.428C140.396 18.148 141.473 17.1027 142.391 16.292C143.329 15.4813 144.023 14.9907 144.471 14.82C145.175 14.564 145.793 14.4573 146.327 14.5C146.86 14.5427 147.265 14.6813 147.543 14.916C147.82 15.1507 147.937 15.4493 147.895 15.812C147.873 16.1747 147.639 16.548 147.191 16.932ZM146.863 36.804C147.268 36.5267 147.77 36.4093 148.367 36.452C148.964 36.4733 149.508 36.612 149.999 36.868C150.49 37.1027 150.863 37.4227 151.119 37.828C151.375 38.2333 151.375 38.6493 151.119 39.076C151.034 39.204 150.884 39.4387 150.671 39.78C150.458 40.1213 150.202 40.516 149.903 40.964C149.626 41.412 149.338 41.892 149.039 42.404C148.762 42.8947 148.516 43.3533 148.303 43.78C148.111 44.1853 147.972 44.5373 147.887 44.836C147.802 45.1133 147.823 45.2733 147.951 45.316C148.399 45.444 148.922 45.412 149.519 45.22C150.116 45.028 150.724 44.7293 151.343 44.324C151.983 43.8973 152.602 43.396 153.199 42.82C153.796 42.2227 154.319 41.5933 154.767 40.932C154.959 40.6547 155.183 40.548 155.439 40.612C155.716 40.6547 155.951 40.804 156.143 41.06C156.335 41.2947 156.463 41.604 156.527 41.988C156.591 42.372 156.516 42.756 156.303 43.14C155.983 43.716 155.46 44.3667 154.735 45.092C154.031 45.796 153.21 46.436 152.271 47.012C151.354 47.5667 150.351 47.9827 149.263 48.26C148.196 48.516 147.151 48.4733 146.127 48.132C145.679 47.9827 145.274 47.7587 144.911 47.46C144.314 48.1427 143.674 48.804 142.991 49.444C142.33 50.084 141.647 50.66 140.943 51.172C140.239 51.684 139.514 52.1107 138.767 52.452C138.02 52.772 137.263 52.9747 136.495 53.06C136.239 53.0813 135.908 53.1027 135.503 53.124C135.119 53.124 134.703 53.0813 134.255 52.996C133.807 52.8893 133.359 52.7187 132.911 52.484C132.484 52.2493 132.1 51.908 131.759 51.46C131.439 51.012 131.194 50.436 131.023 49.732C130.852 49.0067 130.81 48.1107 130.895 47.044C130.959 46.1693 131.204 45.1773 131.631 44.068C132.058 42.9373 132.623 41.7853 133.327 40.612C134.031 39.4387 134.842 38.2867 135.759 37.156C136.698 36.0253 137.711 35.012 138.799 34.116C139.887 33.22 141.028 32.484 142.223 31.908C143.439 31.332 144.676 31.012 145.935 30.948C146.81 30.9053 147.556 30.9587 148.175 31.108C148.815 31.2573 149.338 31.46 149.743 31.716C150.148 31.972 150.447 32.2707 150.639 32.612C150.852 32.9533 150.97 33.2947 150.991 33.636C151.012 34.02 150.948 34.3827 150.799 34.724C150.671 35.0653 150.5 35.3533 150.287 35.588C150.074 35.8227 149.85 35.972 149.615 36.036C149.402 36.1 149.231 36.0467 149.103 35.876C148.676 35.3 148.132 34.9267 147.471 34.756C146.81 34.564 146.138 34.5533 145.455 34.724C144.282 35.0227 143.194 35.5027 142.191 36.164C141.21 36.804 140.314 37.54 139.503 38.372C138.714 39.204 138.01 40.0787 137.391 40.996C136.772 41.9133 136.25 42.7987 135.823 43.652C135.418 44.5053 135.098 45.2733 134.863 45.956C134.628 46.6387 134.5 47.1613 134.479 47.524C134.436 48.036 134.479 48.452 134.607 48.772C134.756 49.092 134.938 49.348 135.151 49.54C135.386 49.7107 135.631 49.828 135.887 49.892C136.143 49.956 136.367 49.988 136.559 49.988C137.05 49.9667 137.583 49.796 138.159 49.476C138.756 49.1347 139.354 48.6973 139.951 48.164C140.57 47.6093 141.188 46.9907 141.807 46.308C142.426 45.6253 143.023 44.932 143.599 44.228C143.556 43.5667 143.599 42.8733 143.727 42.148C143.876 41.4227 144.09 40.7293 144.367 40.068C144.666 39.3853 145.018 38.7667 145.423 38.212C145.85 37.636 146.33 37.1667 146.863 36.804ZM189.16 16.932C188.733 17.2947 188.306 17.668 187.88 18.052C187.474 18.436 187.069 18.82 186.664 19.204C187.688 19.1613 188.573 19.14 189.32 19.14C190.066 19.1187 190.525 19.1293 190.696 19.172C191.101 19.2787 191.261 19.492 191.176 19.812C191.112 20.132 190.92 20.4627 190.6 20.804C190.301 21.1453 189.938 21.4547 189.512 21.732C189.106 22.0093 188.765 22.1587 188.488 22.18L183.336 22.5C180.968 24.9747 178.781 27.5133 176.776 30.116C174.792 32.7187 173.053 35.1933 171.56 37.54C170.066 39.8653 168.872 41.9667 167.976 43.844C167.08 45.7 166.546 47.1293 166.376 48.132C166.269 48.7507 166.205 49.188 166.184 49.444C166.184 49.7 166.226 49.8493 166.312 49.892C166.397 49.9133 166.514 49.86 166.664 49.732C166.834 49.604 167.037 49.444 167.272 49.252C167.826 48.8253 168.466 48.292 169.192 47.652C169.938 46.9907 170.674 46.308 171.4 45.604C172.125 44.9 172.808 44.2067 173.448 43.524C174.088 42.82 174.6 42.1907 174.984 41.636C175.24 41.2733 175.506 41.0813 175.784 41.06C176.061 41.0387 176.285 41.1453 176.456 41.38C176.626 41.5933 176.722 41.924 176.744 42.372C176.765 42.82 176.648 43.3213 176.392 43.876C176.328 44.0467 176.093 44.42 175.688 44.996C175.304 45.5507 174.802 46.2013 174.184 46.948C173.565 47.6947 172.861 48.4733 172.072 49.284C171.304 50.0733 170.482 50.7773 169.608 51.396C168.754 52.0147 167.88 52.4947 166.984 52.836C166.088 53.1773 165.234 53.252 164.424 53.06C163.805 52.932 163.389 52.6227 163.175 52.132C162.941 51.62 162.791 51.0013 162.727 50.276C162.642 49.124 162.791 47.8333 163.175 46.404C163.559 44.9747 164.114 43.4707 164.84 41.892C165.586 40.3133 166.472 38.6813 167.496 36.996C168.52 35.3107 169.608 33.6467 170.76 32.004C171.933 30.3613 173.138 28.7613 174.376 27.204C175.613 25.6253 176.829 24.1533 178.024 22.788C177.234 22.8307 176.488 22.8733 175.784 22.916C175.08 22.9587 174.45 23.0013 173.896 23.044C173.341 23.0653 172.882 23.0867 172.52 23.108C172.178 23.108 171.976 23.108 171.911 23.108C171.741 23.108 171.645 22.9587 171.624 22.66C171.624 22.34 171.698 21.988 171.848 21.604C172.018 21.1987 172.274 20.8253 172.616 20.484C172.957 20.1427 173.394 19.94 173.928 19.876C174.056 19.8547 174.344 19.8333 174.792 19.812C175.24 19.7693 175.784 19.7373 176.424 19.716C177.064 19.6733 177.778 19.6307 178.568 19.588C179.378 19.524 180.221 19.4707 181.096 19.428C182.333 18.148 183.421 17.1027 184.36 16.292C185.298 15.4813 185.992 14.9907 186.44 14.82C187.144 14.564 187.762 14.4573 188.296 14.5C188.829 14.5427 189.234 14.6813 189.512 14.916C189.789 15.1507 189.906 15.4493 189.864 15.812C189.842 16.1747 189.608 16.548 189.16 16.932ZM188.832 36.804C189.237 36.5267 189.738 36.4093 190.336 36.452C190.933 36.4733 191.477 36.612 191.968 36.868C192.458 37.1027 192.832 37.4227 193.088 37.828C193.344 38.2333 193.344 38.6493 193.088 39.076C193.002 39.204 192.853 39.4387 192.64 39.78C192.426 40.1213 192.17 40.516 191.872 40.964C191.594 41.412 191.306 41.892 191.008 42.404C190.73 42.8947 190.485 43.3533 190.272 43.78C190.08 44.1853 189.941 44.5373 189.856 44.836C189.77 45.1133 189.792 45.2733 189.92 45.316C190.368 45.444 190.89 45.412 191.488 45.22C192.085 45.028 192.693 44.7293 193.312 44.324C193.952 43.8973 194.57 43.396 195.168 42.82C195.765 42.2227 196.288 41.5933 196.736 40.932C196.928 40.6547 197.152 40.548 197.408 40.612C197.685 40.6547 197.92 40.804 198.112 41.06C198.304 41.2947 198.432 41.604 198.496 41.988C198.56 42.372 198.485 42.756 198.272 43.14C197.952 43.716 197.429 44.3667 196.704 45.092C196 45.796 195.178 46.436 194.24 47.012C193.322 47.5667 192.32 47.9827 191.232 48.26C190.165 48.516 189.12 48.4733 188.096 48.132C187.648 47.9827 187.242 47.7587 186.88 47.46C186.282 48.1427 185.642 48.804 184.96 49.444C184.298 50.084 183.616 50.66 182.912 51.172C182.208 51.684 181.482 52.1107 180.736 52.452C179.989 52.772 179.232 52.9747 178.464 53.06C178.208 53.0813 177.877 53.1027 177.472 53.124C177.088 53.124 176.672 53.0813 176.224 52.996C175.776 52.8893 175.328 52.7187 174.88 52.484C174.453 52.2493 174.069 51.908 173.728 51.46C173.408 51.012 173.162 50.436 172.992 49.732C172.821 49.0067 172.778 48.1107 172.864 47.044C172.928 46.1693 173.173 45.1773 173.6 44.068C174.026 42.9373 174.592 41.7853 175.296 40.612C176 39.4387 176.81 38.2867 177.728 37.156C178.666 36.0253 179.68 35.012 180.768 34.116C181.856 33.22 182.997 32.484 184.192 31.908C185.408 31.332 186.645 31.012 187.904 30.948C188.778 30.9053 189.525 30.9587 190.144 31.108C190.784 31.2573 191.306 31.46 191.712 31.716C192.117 31.972 192.416 32.2707 192.608 32.612C192.821 32.9533 192.938 33.2947 192.96 33.636C192.981 34.02 192.917 34.3827 192.768 34.724C192.64 35.0653 192.469 35.3533 192.256 35.588C192.042 35.8227 191.818 35.972 191.584 36.036C191.37 36.1 191.2 36.0467 191.072 35.876C190.645 35.3 190.101 34.9267 189.44 34.756C188.778 34.564 188.106 34.5533 187.424 34.724C186.25 35.0227 185.162 35.5027 184.16 36.164C183.178 36.804 182.282 37.54 181.472 38.372C180.682 39.204 179.978 40.0787 179.36 40.996C178.741 41.9133 178.218 42.7987 177.792 43.652C177.386 44.5053 177.066 45.2733 176.832 45.956C176.597 46.6387 176.469 47.1613 176.448 47.524C176.405 48.036 176.448 48.452 176.576 48.772C176.725 49.092 176.906 49.348 177.12 49.54C177.354 49.7107 177.6 49.828 177.856 49.892C178.112 49.956 178.336 49.988 178.528 49.988C179.018 49.9667 179.552 49.796 180.128 49.476C180.725 49.1347 181.322 48.6973 181.92 48.164C182.538 47.6093 183.157 46.9907 183.776 46.308C184.394 45.6253 184.992 44.932 185.568 44.228C185.525 43.5667 185.568 42.8733 185.696 42.148C185.845 41.4227 186.058 40.7293 186.336 40.068C186.634 39.3853 186.986 38.7667 187.392 38.212C187.818 37.636 188.298 37.1667 188.832 36.804Z" fill="white"/>
</svg>
