<svg width="284" height="112" viewBox="0 0 284 112" fill="none" xmlns="http://www.w3.org/2000/svg">
<path d="M4.24985 100.079L10.5005 70.5248H0.0625L2.06514 60.9971H36.0494L34.0468 70.5248H23.548L17.2974 100.079H4.24985Z" fill="white"/>
<path d="M30.1974 100.079L38.4508 60.9971H51.4983L48.646 74.6515H60.2371L63.0893 60.9971H76.1369L67.8836 100.079H54.836L57.6883 86.4246H46.0972L43.245 100.079H30.1974Z" fill="white"/>
<path d="M72.8081 100.079L81.0615 60.9971H111.465L109.463 70.6462H92.1063L91.014 75.6224H106.125L104.062 85.5143H88.9507L87.8583 90.4299H105.215L103.212 100.079H72.8081Z" fill="white"/>
<path d="M127.044 100.079L133.295 70.5248H122.857L124.86 60.9971H158.844L156.841 70.5248H146.343L140.092 100.079H127.044Z" fill="white"/>
<path d="M152.992 100.079L161.245 60.9971H191.649L189.647 70.6462H172.29L171.198 75.6224H186.309L184.245 85.5143H169.135L168.042 90.4299H185.398L183.396 100.079H152.992Z" fill="white"/>
<path d="M185.498 100.079L208.741 60.9971H222.395L229.192 100.079H216.145L214.749 92.3111H204.129L199.517 100.079H185.498ZM207.649 83.2082H214.992L213.292 73.7412L207.649 83.2082Z" fill="white"/>
<path d="M232.88 100.079L241.133 60.9971H253.21L258.247 79.0209L270.809 60.9971H283.735L275.481 100.079H262.434L265.954 83.4509L258.975 93.4035H252.178L249.447 83.4509L245.927 100.079H232.88Z" fill="white"/>
<path d="M133.377 111.048L137.121 95.5482L138.5 89.8076H148.548L133.377 111.048Z" fill="white"/>
<path d="M43.6822 0.687147C44.9835 0.665813 46.0395 0.857813 46.8502 1.26315C47.6822 1.66848 48.3328 2.14848 48.8022 2.70315C49.2715 3.25781 49.5915 3.83381 49.7622 4.43115C49.9328 5.00715 50.0182 5.45515 50.0182 5.77515C50.0182 6.84181 49.7622 7.95115 49.2502 9.10315C48.7382 10.2338 48.0875 11.3538 47.2982 12.4631C46.5088 13.5725 45.6235 14.6498 44.6422 15.6951C43.6822 16.7191 42.7435 17.6471 41.8262 18.4791C40.9302 19.2898 40.1088 19.9831 39.3622 20.5591C38.6368 21.1138 38.1035 21.4871 37.7622 21.6791C36.8022 22.2125 35.8955 22.4685 35.0422 22.4471C34.2102 22.4045 33.5062 22.2338 32.9302 21.9351C32.3755 21.6365 32.0128 21.2951 31.8422 20.9111C31.6928 20.5058 31.8315 20.1965 32.2582 19.9831C32.9408 19.6418 33.7408 19.1618 34.6582 18.5431C35.5755 17.9031 36.5142 17.1885 37.4742 16.3991C38.4555 15.6098 39.4262 14.7671 40.3862 13.8711C41.3462 12.9538 42.2102 12.0471 42.9782 11.1511C43.7462 10.2551 44.3862 9.40181 44.8982 8.59115C45.4102 7.75915 45.7088 7.03382 45.7942 6.41515C45.8795 5.79648 45.7088 5.31648 45.2822 4.97515C44.8555 4.61248 44.0875 4.44181 42.9782 4.46315C41.1435 4.48448 39.3942 4.77248 37.7302 5.32715C36.0875 5.86048 34.5515 6.56448 33.1222 7.43915C31.7142 8.29248 30.4342 9.26315 29.2822 10.3511C28.1515 11.4178 27.1702 12.4951 26.3382 13.5831C25.5275 14.6711 24.8875 15.7165 24.4181 16.7191C23.9702 17.7218 23.7248 18.5751 23.6821 19.2791C23.6395 20.2391 23.7462 21.1351 24.0022 21.9671C24.2795 22.7991 24.6528 23.5991 25.1222 24.3671C25.5915 25.1138 26.1248 25.8391 26.7222 26.5431C27.3408 27.2258 27.9595 27.9085 28.5782 28.5912C29.2182 29.2738 29.8155 29.9671 30.3702 30.6711C30.9462 31.3538 31.4368 32.0685 31.8422 32.8151C32.2475 33.5405 32.5248 34.3085 32.6742 35.1191C32.8448 35.9298 32.8342 36.7938 32.6422 37.7111C32.2155 39.6311 31.4582 41.3911 30.3702 42.9911C29.3035 44.5911 28.0342 45.9671 26.5622 47.1191C25.1115 48.2925 23.5435 49.2205 21.8582 49.9031C20.1728 50.5858 18.5302 50.9911 16.9302 51.1191C15.4368 51.2258 14.0182 51.1298 12.6742 50.8311C11.3302 50.5538 10.1568 50.0845 9.15415 49.4231C8.17282 48.7831 7.40482 47.9511 6.85015 46.9271C6.29548 45.9031 6.07148 44.7085 6.17815 43.3431C6.28482 41.9778 6.61548 40.7618 7.17015 39.6951C7.74615 38.6285 8.43948 37.7111 9.25015 36.9431C10.0822 36.1538 10.9675 35.4925 11.9062 34.9591C12.8662 34.4045 13.7728 33.9565 14.6262 33.6151C15.5008 33.2525 16.2795 32.9858 16.9622 32.8151C17.6662 32.6445 18.1568 32.5378 18.4342 32.4951C18.8608 32.4311 19.2662 32.5058 19.6502 32.7191C20.0342 32.9325 20.3542 33.1885 20.6102 33.4871C20.8662 33.7858 21.0155 34.0845 21.0582 34.3831C21.1222 34.6605 21.0368 34.8311 20.8022 34.8951C18.7328 35.4285 17.0262 36.1005 15.6821 36.9111C14.3595 37.7218 13.3142 38.5538 12.5462 39.4071C11.7782 40.2605 11.2555 41.0711 10.9782 41.8391C10.7222 42.6071 10.6155 43.2045 10.6582 43.6311C10.7435 44.3991 10.9568 45.0391 11.2982 45.5511C11.6395 46.0631 12.0768 46.4578 12.6102 46.7351C13.1648 47.0125 13.7942 47.1831 14.4981 47.2471C15.2022 47.3111 15.9382 47.2791 16.7062 47.1511C17.9222 46.9378 19.2128 46.5005 20.5782 45.8391C21.9435 45.1778 23.1915 44.3671 24.3222 43.4071C25.4742 42.4471 26.4235 41.3805 27.1702 40.2071C27.9168 39.0338 28.2902 37.8285 28.2902 36.5911C28.2902 35.8018 28.0662 35.0231 27.6182 34.2551C27.1702 33.4658 26.6048 32.6871 25.9222 31.9191C25.2608 31.1298 24.5355 30.3191 23.7462 29.4871C22.9568 28.6551 22.2102 27.7805 21.5062 26.8631C20.8235 25.9245 20.2475 24.9431 19.7782 23.9191C19.3088 22.8738 19.0635 21.7538 19.0422 20.5591C19.0208 19.6205 19.2342 18.4898 19.6822 17.1671C20.1515 15.8445 20.8448 14.4578 21.7622 13.0071C22.6795 11.5565 23.8315 10.1165 25.2182 8.68715C26.6048 7.23648 28.2155 5.93515 30.0502 4.78315C31.8848 3.60981 33.9328 2.64981 36.1942 1.90315C38.4768 1.15648 40.9728 0.751147 43.6822 0.687147Z" fill="white"/>
<path d="M51.6014 30.1271C52.1774 29.6151 52.7641 29.2845 53.3614 29.1351C53.9587 28.9645 54.4707 28.9111 54.8974 28.9751C55.3454 29.0391 55.6761 29.1671 55.8894 29.3591C56.1027 29.5298 56.1241 29.6898 55.9534 29.8391C55.7827 29.9885 55.5694 30.2551 55.3134 30.6391C55.0787 31.0231 54.8121 31.4818 54.5134 32.0152C54.2361 32.5485 53.9374 33.1351 53.6174 33.7751C53.2974 34.3938 52.9774 35.0231 52.6574 35.6631C52.3374 36.2818 52.0387 36.8898 51.7614 37.4871C51.4841 38.0631 51.2387 38.5751 51.0254 39.0231C50.7694 39.5778 50.6201 39.9831 50.5774 40.2391C50.5561 40.4951 50.5987 40.6551 50.7054 40.7191C50.8334 40.7618 51.0041 40.7298 51.2174 40.6231C51.4521 40.4951 51.6867 40.3351 51.9214 40.1431C52.4761 39.7165 53.1161 39.1831 53.8414 38.5431C54.5881 37.8818 55.3241 37.1991 56.0494 36.4951C56.7747 35.7911 57.4574 35.0978 58.0974 34.4151C58.7374 33.7111 59.2494 33.0818 59.6334 32.5271C59.8894 32.1645 60.1561 31.9725 60.4334 31.9512C60.7107 31.9298 60.9347 32.0365 61.1054 32.2712C61.2761 32.4845 61.3721 32.8151 61.3934 33.2631C61.4147 33.7111 61.2974 34.2125 61.0414 34.7671C60.9774 34.9378 60.7427 35.3111 60.3374 35.8871C59.9534 36.4418 59.4521 37.0925 58.8334 37.8391C58.2147 38.5858 57.5107 39.3645 56.7214 40.1751C55.9534 40.9645 55.1321 41.6685 54.2574 42.2871C53.4041 42.9058 52.5294 43.3858 51.6334 43.7271C50.7374 44.0685 49.8841 44.1431 49.0734 43.9511C48.2414 43.7591 47.6867 43.3325 47.4094 42.6711C47.1321 41.9885 47.0361 41.1778 47.1214 40.2391C46.5667 40.7511 46.0014 41.2418 45.4254 41.7111C44.8494 42.1805 44.2734 42.5965 43.6974 42.9591C43.1214 43.3005 42.5454 43.5778 41.9694 43.7911C41.4147 43.9831 40.8707 44.0791 40.3374 44.0791C39.6974 44.0791 39.1214 43.9618 38.6094 43.7271C38.0974 43.4711 37.6601 43.1511 37.2974 42.7671C36.9561 42.3618 36.6894 41.9031 36.4974 41.3911C36.3267 40.8578 36.2414 40.3031 36.2414 39.7271C36.2627 37.9991 36.5507 36.3565 37.1054 34.7991C37.6814 33.2205 38.4067 31.7591 39.2814 30.4151C40.1561 29.0711 41.1481 27.8658 42.2574 26.7992C43.3667 25.7325 44.4761 24.8258 45.5854 24.0791C46.6947 23.3325 47.7507 22.7671 48.7534 22.3831C49.7561 21.9778 50.6094 21.7858 51.3134 21.8071C52.1454 21.8285 52.8601 21.9885 53.4574 22.2871C54.0547 22.5645 54.5454 22.9165 54.9294 23.3431C55.3134 23.7485 55.6014 24.1965 55.7934 24.6872C55.9854 25.1565 56.0921 25.6151 56.1134 26.0632C56.1561 26.4898 56.1241 26.8631 56.0174 27.1831C55.9107 27.4818 55.7507 27.6631 55.5374 27.7271C55.0041 27.8978 54.5987 27.8871 54.3214 27.6951C54.0441 27.4818 53.7774 27.2152 53.5214 26.8952C53.2867 26.5752 52.9987 26.2658 52.6574 25.9671C52.3161 25.6685 51.8147 25.5085 51.1534 25.4871C50.4067 25.4658 49.6281 25.6578 48.8174 26.0632C48.0067 26.4472 47.2067 26.9698 46.4174 27.6312C45.6494 28.2925 44.9027 29.0498 44.1774 29.9031C43.4734 30.7565 42.8441 31.6525 42.2894 32.5912C41.7347 33.5085 41.2761 34.4258 40.9134 35.3431C40.5507 36.2605 40.3267 37.1031 40.2414 37.8711C40.1347 38.8525 40.2201 39.5138 40.4974 39.8551C40.7747 40.1751 41.1694 40.2605 41.6814 40.1111C42.2147 39.9405 42.8334 39.5778 43.5374 39.0231C44.2627 38.4471 45.0201 37.7645 45.8094 36.9751C46.6201 36.1645 47.4307 35.2791 48.2414 34.3191C49.0734 33.3378 49.8627 32.3671 50.6094 31.4071C50.9934 30.7885 51.3241 30.3618 51.6014 30.1271Z" fill="white"/>
<path d="M65.7697 22.7671C66.3457 22.2551 66.943 21.9138 67.5617 21.7431C68.1803 21.5725 68.7243 21.5085 69.1937 21.5511C69.663 21.5725 70.015 21.6791 70.2496 21.8711C70.5056 22.0418 70.559 22.2125 70.4097 22.3831C69.9403 22.9378 69.4177 23.6418 68.8417 24.4951C68.2657 25.3272 67.6683 26.2445 67.0497 27.2471C66.4523 28.2498 65.855 29.3058 65.2577 30.4151C64.6603 31.5031 64.095 32.5698 63.5617 33.6151C63.0283 34.6605 62.5483 35.6525 62.1217 36.5911C61.7163 37.5298 61.3857 38.3405 61.1297 39.0231C60.8097 39.8765 60.7563 40.3885 60.9697 40.5591C61.2043 40.7298 61.6097 40.6551 62.1857 40.3351C62.7617 39.9938 63.455 39.4498 64.2657 38.7031C65.0977 37.9565 65.9617 37.1031 66.8577 36.1431C67.7537 35.1618 68.6283 34.1165 69.4817 33.0071C70.3563 31.8978 71.1137 30.8098 71.7537 29.7432C72.3083 28.5485 72.8417 27.4178 73.3537 26.3511C73.887 25.2631 74.431 24.2285 74.9856 23.2471C75.2416 22.7778 75.6576 22.4365 76.2337 22.2231C76.8097 21.9885 77.375 21.8605 77.9296 21.8391C78.5056 21.8178 78.9857 21.8818 79.3697 22.0311C79.775 22.1805 79.935 22.3831 79.8497 22.6391C79.2523 23.9831 78.5377 25.5405 77.7057 27.3111C76.8737 29.0605 75.9883 30.9058 75.0497 32.8471C74.111 34.7885 73.1297 36.7618 72.1057 38.7671C71.103 40.7725 70.1217 42.6818 69.1617 44.4951C70.1857 44.6658 71.135 44.9965 72.0097 45.4871C72.9057 45.9778 73.5563 46.6818 73.9617 47.5991C74.1537 48.0471 74.2603 48.4738 74.2817 48.8791C74.303 49.2845 74.2497 49.6045 74.1217 49.8391C73.9937 50.0738 73.791 50.1911 73.5136 50.1911C73.2576 50.2125 72.9376 50.0525 72.5536 49.7111C71.9563 49.1778 71.2097 48.7511 70.3137 48.4311C69.439 48.1111 68.4577 47.8978 67.3697 47.7911C66.879 48.6658 66.4097 49.4658 65.9617 50.1911C65.535 50.9378 65.1403 51.6205 64.7777 52.2391C63.4977 54.2871 62.1323 56.0045 60.6817 57.3911C59.2523 58.7991 57.8443 59.8978 56.4577 60.6871C55.0497 61.4978 53.727 62.0098 52.4897 62.2231C51.231 62.4365 50.143 62.3725 49.2257 62.0312C48.3083 61.7111 47.615 61.1138 47.1457 60.2392C46.655 59.3858 46.4843 58.2765 46.6337 56.9111C46.6977 56.3351 46.9003 55.6525 47.2417 54.8631C47.583 54.0738 48.0737 53.2418 48.7137 52.3671C49.3537 51.5138 50.1537 50.6498 51.1137 49.7751C52.0737 48.9218 53.2257 48.1325 54.5697 47.4071C55.8923 46.6818 57.3963 46.0525 59.0816 45.5191C60.7883 45.0071 62.7083 44.6551 64.8417 44.4631C65.183 43.8231 65.5137 43.1831 65.8337 42.5431C66.1537 41.8818 66.4737 41.2311 66.7937 40.5911C66.1963 41.1458 65.567 41.6578 64.9057 42.1271C64.2657 42.5965 63.615 42.9911 62.9537 43.3111C62.3137 43.6311 61.663 43.8551 61.0017 43.9831C60.3617 44.0898 59.7323 44.0791 59.1137 43.9511C58.2177 43.7378 57.6417 43.2471 57.3857 42.4791C57.1297 41.7111 57.087 40.7938 57.2577 39.7271C57.4497 38.4685 57.823 37.0605 58.3777 35.5031C58.9537 33.9458 59.6363 32.3885 60.4257 30.8311C61.215 29.2525 62.0683 27.7591 62.9857 26.3511C63.9243 24.9218 64.8523 23.7271 65.7697 22.7671ZM62.9857 47.8871C61.727 48.0791 60.4683 48.3885 59.2097 48.8151C57.951 49.2418 56.767 49.7965 55.6576 50.4791C54.527 51.1831 53.5137 52.0151 52.6177 52.9751C51.7003 53.9565 50.975 55.0765 50.4417 56.3351C50.0363 57.2738 49.9403 57.9351 50.1537 58.3191C50.367 58.7245 50.7723 58.9485 51.3697 58.9911C52.3083 59.0765 53.2683 58.8525 54.2497 58.3191C55.2097 57.8071 56.1697 57.0711 57.1297 56.1111C58.0683 55.1511 58.9963 54.0205 59.9137 52.7191C60.8523 51.4391 61.7483 50.0631 62.6017 48.5911L62.9857 47.8871Z" fill="white"/>
<path d="M108.21 24.5271C106.951 26.7885 105.714 29.1565 104.498 31.6311C103.303 34.1058 102.13 36.5698 100.978 39.0231C100.722 39.5778 100.572 39.9831 100.53 40.2391C100.508 40.4951 100.551 40.6551 100.658 40.7191C100.786 40.7618 100.956 40.7298 101.17 40.6231C101.404 40.4951 101.639 40.3351 101.874 40.1431C102.428 39.7165 103.068 39.1831 103.794 38.5431C104.54 37.8818 105.276 37.1991 106.002 36.4951C106.727 35.7911 107.41 35.0978 108.05 34.4151C108.69 33.7111 109.202 33.0818 109.586 32.5271C109.842 32.1645 110.108 31.9725 110.386 31.9512C110.663 31.9298 110.887 32.0365 111.058 32.2712C111.228 32.4845 111.324 32.8151 111.346 33.2631C111.367 33.7111 111.25 34.2125 110.994 34.7671C110.908 34.9378 110.674 35.3111 110.29 35.8871C109.906 36.4418 109.404 37.0925 108.786 37.8391C108.167 38.5858 107.463 39.3645 106.674 40.1751C105.906 40.9645 105.084 41.6685 104.21 42.2871C103.356 42.9058 102.482 43.3858 101.586 43.7271C100.69 44.0685 99.8363 44.1431 99.0257 43.9511C97.895 43.6951 97.191 43.0765 96.9137 42.0951C96.6577 41.0925 96.743 39.8871 97.1697 38.4791C97.639 36.9431 98.1937 35.4925 98.8337 34.1271C99.495 32.7618 100.124 31.5458 100.722 30.4792C101.34 29.4125 101.874 28.5165 102.322 27.7911C102.791 27.0445 103.09 26.5431 103.218 26.2871C103.324 26.0738 103.335 25.9565 103.25 25.9351C103.186 25.9138 103.079 25.9458 102.93 26.0311C102.78 26.0951 102.62 26.1911 102.45 26.3191C102.279 26.4471 102.151 26.5431 102.066 26.6071C101.554 26.9485 100.924 27.4391 100.178 28.0791C99.4523 28.6978 98.6737 29.4125 97.8417 30.2231C97.0097 31.0338 96.167 31.9085 95.3137 32.8471C94.4603 33.7858 93.6603 34.7351 92.9137 35.6951C92.167 36.6551 91.5056 37.6151 90.9296 38.5751C90.3536 39.5138 89.9376 40.3885 89.6816 41.1991C89.6816 41.2631 89.671 41.3271 89.6497 41.3911C89.6497 41.4551 89.6497 41.5191 89.6497 41.5831C89.543 42.6071 89.2763 43.3005 88.8497 43.6631C88.423 44.0258 87.9537 44.0045 87.4417 43.5991C87.079 43.3005 86.7803 42.8738 86.5457 42.3191C86.2897 41.7645 86.183 40.9431 86.2257 39.8551C86.2683 38.3191 86.6096 36.6658 87.2496 34.8951C87.8896 33.1245 88.7217 31.3111 89.7457 29.4551C90.7697 27.5991 91.9323 25.7431 93.2337 23.8871C94.5563 22.0311 95.9003 20.2498 97.2656 18.5431C98.6523 16.8151 100.018 15.2045 101.362 13.7111C102.706 12.1965 103.911 10.8738 104.978 9.74315C106.066 8.61248 106.972 7.69515 107.698 6.99115C108.423 6.28715 108.86 5.88181 109.01 5.77515C109.543 5.39115 110.098 5.18848 110.674 5.16715C111.25 5.14581 111.73 5.24182 112.114 5.45515C112.519 5.64715 112.775 5.93515 112.882 6.31915C112.988 6.68181 112.828 7.05515 112.402 7.43915C110.396 9.27381 108.487 11.1725 106.674 13.1351C104.882 15.0765 103.207 17.0285 101.65 18.9911C100.092 20.9538 98.6737 22.8738 97.3937 24.7511C96.1137 26.6285 95.0043 28.3992 94.0657 30.0632C94.8977 28.9965 95.815 27.9298 96.8176 26.8631C97.8203 25.7965 98.855 24.8471 99.9217 24.0151C101.01 23.1831 102.119 22.5218 103.25 22.0311C104.38 21.5405 105.511 21.3378 106.642 21.4231C107.26 21.4658 107.719 21.6045 108.018 21.8391C108.316 22.0738 108.508 22.3405 108.594 22.6391C108.679 22.9378 108.668 23.2578 108.562 23.5991C108.476 23.9405 108.359 24.2498 108.21 24.5271Z" fill="white"/>
<path d="M124.282 21.3911C125.007 21.3911 125.572 21.5405 125.978 21.8391C126.383 22.1378 126.682 22.4898 126.874 22.8951C127.066 23.2791 127.162 23.6845 127.162 24.1111C127.162 24.5165 127.13 24.8365 127.066 25.0711C126.916 25.5618 126.618 26.2765 126.17 27.2152C125.743 28.1325 125.103 29.0498 124.25 29.9671C123.78 30.4578 123.204 31.0338 122.522 31.6951C121.86 32.3351 121.135 32.9645 120.346 33.5831C119.556 34.2018 118.746 34.7671 117.914 35.2791C117.082 35.7698 116.282 36.1218 115.514 36.3351C114.852 36.5271 114.33 36.5591 113.946 36.4311C113.583 36.2818 113.327 36.0898 113.178 35.8551C113.028 35.5991 112.975 35.3538 113.018 35.1191C113.082 34.8631 113.21 34.7031 113.402 34.6391C114.042 34.4471 114.692 34.1698 115.354 33.8071C116.015 33.4231 116.655 33.0071 117.274 32.5591C117.914 32.1111 118.511 31.6418 119.066 31.1511C119.62 30.6605 120.111 30.2018 120.538 29.7751C120.986 29.3485 121.348 28.9965 121.626 28.7191C121.903 28.4205 122.074 28.2285 122.138 28.1431C122.479 27.6951 122.788 27.2578 123.066 26.8311C123.364 26.4045 123.567 26.0311 123.674 25.7111C123.78 25.3698 123.759 25.1138 123.61 24.9431C123.482 24.7725 123.183 24.7191 122.714 24.7831C122.074 24.8898 121.37 25.2098 120.602 25.7432C119.834 26.2552 119.044 26.8951 118.234 27.6631C117.444 28.4311 116.666 29.2951 115.898 30.2551C115.151 31.2151 114.468 32.1858 113.85 33.1671C113.252 34.1271 112.762 35.0765 112.378 36.0151C111.994 36.9325 111.77 37.7431 111.706 38.4471C111.642 39.1511 111.77 39.7165 112.09 40.1431C112.41 40.5485 112.986 40.7298 113.818 40.6871C114.756 40.6445 115.716 40.3991 116.698 39.9511C117.7 39.4818 118.682 38.9058 119.642 38.2231C120.623 37.5405 121.551 36.8045 122.426 36.0151C123.3 35.2258 124.09 34.4791 124.794 33.7751C125.519 33.0711 126.127 32.4632 126.618 31.9512C127.108 31.4392 127.45 31.1191 127.642 30.9911C127.919 30.8205 128.143 30.7991 128.314 30.9271C128.484 31.0551 128.612 31.2471 128.698 31.5031C128.804 31.7591 128.858 32.0365 128.858 32.3351C128.879 32.6338 128.879 32.8685 128.858 33.0391C128.836 33.1671 128.612 33.5085 128.186 34.0631C127.78 34.6178 127.215 35.2898 126.49 36.0791C125.764 36.8471 124.911 37.6791 123.93 38.5751C122.97 39.4498 121.924 40.2818 120.794 41.0711C119.663 41.8391 118.468 42.5111 117.21 43.0871C115.951 43.6418 114.692 43.9725 113.434 44.0791C112.239 44.1858 111.247 44.0791 110.458 43.7591C109.69 43.4391 109.082 43.0018 108.634 42.4471C108.186 41.8925 107.876 41.2738 107.706 40.5911C107.535 39.8871 107.471 39.2151 107.514 38.5751C107.556 37.7005 107.791 36.6765 108.218 35.5031C108.644 34.3085 109.231 33.0818 109.978 31.8231C110.724 30.5431 111.599 29.2845 112.602 28.0471C113.626 26.7885 114.746 25.6685 115.962 24.6872C117.199 23.7058 118.511 22.9165 119.898 22.3191C121.306 21.7005 122.767 21.3911 124.282 21.3911Z" fill="white"/>
<path d="M150.057 7.82315C148.009 9.59381 146.036 11.4818 144.137 13.4871C142.26 15.4711 140.5 17.4871 138.857 19.5351C137.214 21.5831 135.71 23.5991 134.345 25.5831C133.001 27.5671 131.828 29.4231 130.825 31.1511C129.822 32.8791 129.012 34.4258 128.393 35.7911C127.774 37.1565 127.401 38.2338 127.273 39.0231C127.166 39.6418 127.102 40.0791 127.081 40.3351C127.081 40.5911 127.124 40.7405 127.209 40.7831C127.294 40.8045 127.412 40.7511 127.561 40.6231C127.732 40.4951 127.934 40.3351 128.169 40.1431C128.724 39.7165 129.364 39.1831 130.089 38.5431C130.836 37.8818 131.572 37.1991 132.297 36.4951C133.022 35.7911 133.705 35.0978 134.345 34.4151C134.985 33.7111 135.497 33.0818 135.881 32.5271C136.137 32.1645 136.404 31.9725 136.681 31.9512C136.958 31.9298 137.182 32.0365 137.353 32.2712C137.524 32.4845 137.62 32.8151 137.641 33.2631C137.662 33.7111 137.545 34.2125 137.289 34.7671C137.225 34.9378 136.99 35.3111 136.585 35.8871C136.201 36.4418 135.7 37.0925 135.081 37.8391C134.462 38.5858 133.758 39.3645 132.969 40.1751C132.201 40.9645 131.38 41.6685 130.505 42.2871C129.652 42.9058 128.777 43.3858 127.881 43.7271C126.985 44.0685 126.132 44.1431 125.321 43.9511C124.702 43.8231 124.286 43.5138 124.073 43.0231C123.838 42.5111 123.689 41.8925 123.625 41.1671C123.518 39.8445 123.732 38.3405 124.265 36.6551C124.777 34.9698 125.513 33.1991 126.473 31.3431C127.433 29.4658 128.553 27.5565 129.833 25.6151C131.113 23.6738 132.446 21.7858 133.833 19.9511C135.241 18.0951 136.649 16.3458 138.057 14.7031C139.465 13.0605 140.788 11.5991 142.025 10.3191C143.262 9.03915 144.34 7.99382 145.257 7.18315C146.196 6.37248 146.889 5.88181 147.337 5.71115C148.041 5.45515 148.66 5.34848 149.193 5.39115C149.726 5.43381 150.132 5.57248 150.409 5.80715C150.686 6.04181 150.804 6.34048 150.761 6.70315C150.74 7.06581 150.505 7.43915 150.057 7.82315Z" fill="white"/>
<path d="M159.713 7.82315C157.665 9.59381 155.692 11.4818 153.793 13.4871C151.916 15.4711 150.156 17.4871 148.513 19.5351C146.871 21.5831 145.367 23.5991 144.001 25.5831C142.657 27.5671 141.484 29.4231 140.481 31.1511C139.479 32.8791 138.668 34.4258 138.049 35.7911C137.431 37.1565 137.057 38.2338 136.929 39.0231C136.823 39.6418 136.759 40.0791 136.737 40.3351C136.737 40.5911 136.78 40.7405 136.865 40.7831C136.951 40.8045 137.068 40.7511 137.217 40.6231C137.388 40.4951 137.591 40.3351 137.825 40.1431C138.38 39.7165 139.02 39.1831 139.745 38.5431C140.492 37.8818 141.228 37.1991 141.953 36.4951C142.679 35.7911 143.361 35.0978 144.001 34.4151C144.641 33.7111 145.153 33.0818 145.537 32.5271C145.793 32.1645 146.06 31.9725 146.337 31.9512C146.615 31.9298 146.839 32.0365 147.009 32.2712C147.18 32.4845 147.276 32.8151 147.297 33.2631C147.319 33.7111 147.201 34.2125 146.945 34.7671C146.881 34.9378 146.647 35.3111 146.241 35.8871C145.857 36.4418 145.356 37.0925 144.737 37.8391C144.119 38.5858 143.415 39.3645 142.625 40.1751C141.857 40.9645 141.036 41.6685 140.161 42.2871C139.308 42.9058 138.433 43.3858 137.537 43.7271C136.641 44.0685 135.788 44.1431 134.977 43.9511C134.359 43.8231 133.943 43.5138 133.729 43.0231C133.495 42.5111 133.345 41.8925 133.281 41.1671C133.175 39.8445 133.388 38.3405 133.921 36.6551C134.433 34.9698 135.169 33.1991 136.129 31.3431C137.089 29.4658 138.209 27.5565 139.489 25.6151C140.769 23.6738 142.103 21.7858 143.489 19.9511C144.897 18.0951 146.305 16.3458 147.713 14.7031C149.121 13.0605 150.444 11.5991 151.681 10.3191C152.919 9.03915 153.996 7.99382 154.913 7.18315C155.852 6.37248 156.545 5.88181 156.993 5.71115C157.697 5.45515 158.316 5.34848 158.849 5.39115C159.383 5.43381 159.788 5.57248 160.065 5.80715C160.343 6.04181 160.46 6.34048 160.417 6.70315C160.396 7.06581 160.161 7.43915 159.713 7.82315Z" fill="white"/>
<path d="M159.386 27.6951C159.791 27.4178 160.292 27.3005 160.89 27.3431C161.487 27.3645 162.031 27.5032 162.522 27.7591C163.012 27.9938 163.386 28.3138 163.642 28.7191C163.898 29.1245 163.898 29.5405 163.642 29.9671C163.556 30.0951 163.407 30.3298 163.194 30.6711C162.98 31.0125 162.724 31.4072 162.426 31.8552C162.148 32.3032 161.86 32.7831 161.562 33.2951C161.284 33.7858 161.039 34.2445 160.826 34.6711C160.634 35.0765 160.495 35.4285 160.41 35.7271C160.324 36.0045 160.346 36.1645 160.474 36.2071C160.922 36.3351 161.444 36.3031 162.042 36.1111C162.639 35.9191 163.247 35.6205 163.866 35.2151C164.506 34.7885 165.124 34.2871 165.722 33.7111C166.319 33.1138 166.842 32.4845 167.29 31.8231C167.482 31.5458 167.706 31.4391 167.962 31.5031C168.239 31.5458 168.474 31.6952 168.666 31.9512C168.858 32.1858 168.986 32.4951 169.05 32.8791C169.114 33.2631 169.039 33.6471 168.826 34.0311C168.506 34.6071 167.983 35.2578 167.258 35.9831C166.554 36.6871 165.732 37.3271 164.794 37.9031C163.876 38.4578 162.874 38.8738 161.786 39.1511C160.719 39.4071 159.674 39.3645 158.65 39.0231C158.202 38.8738 157.796 38.6498 157.434 38.3511C156.836 39.0338 156.196 39.6951 155.514 40.3351C154.852 40.9751 154.17 41.5511 153.466 42.0631C152.762 42.5751 152.036 43.0018 151.29 43.3431C150.543 43.6631 149.786 43.8658 149.018 43.9511C148.762 43.9725 148.431 43.9938 148.026 44.0151C147.642 44.0151 147.226 43.9725 146.778 43.8871C146.33 43.7805 145.882 43.6098 145.434 43.3751C145.007 43.1405 144.623 42.7991 144.282 42.3511C143.962 41.9031 143.716 41.3271 143.546 40.6231C143.375 39.8978 143.332 39.0018 143.418 37.9351C143.482 37.0605 143.727 36.0685 144.154 34.9591C144.58 33.8285 145.146 32.6765 145.85 31.5031C146.554 30.3298 147.364 29.1778 148.282 28.0471C149.22 26.9165 150.234 25.9032 151.322 25.0072C152.41 24.1112 153.551 23.3751 154.746 22.7991C155.962 22.2231 157.199 21.9031 158.458 21.8391C159.332 21.7965 160.079 21.8498 160.698 21.9991C161.338 22.1485 161.86 22.3511 162.266 22.6071C162.671 22.8631 162.97 23.1618 163.162 23.5031C163.375 23.8445 163.492 24.1858 163.514 24.5271C163.535 24.9111 163.471 25.2738 163.322 25.6151C163.194 25.9565 163.023 26.2445 162.81 26.4792C162.596 26.7138 162.372 26.8631 162.138 26.9271C161.924 26.9911 161.754 26.9378 161.626 26.7671C161.199 26.1911 160.655 25.8178 159.994 25.6472C159.332 25.4551 158.66 25.4445 157.978 25.6151C156.804 25.9138 155.716 26.3938 154.714 27.0551C153.732 27.6951 152.836 28.4311 152.026 29.2631C151.236 30.0951 150.532 30.9698 149.914 31.8871C149.295 32.8045 148.772 33.6898 148.346 34.5431C147.94 35.3965 147.62 36.1645 147.386 36.8471C147.151 37.5298 147.023 38.0525 147.002 38.4151C146.959 38.9271 147.002 39.3431 147.13 39.6631C147.279 39.9831 147.46 40.2391 147.674 40.4311C147.908 40.6018 148.154 40.7191 148.41 40.7831C148.666 40.8471 148.89 40.8791 149.082 40.8791C149.572 40.8578 150.106 40.6871 150.682 40.3671C151.279 40.0258 151.876 39.5885 152.474 39.0551C153.092 38.5005 153.711 37.8818 154.33 37.1991C154.948 36.5165 155.546 35.8231 156.122 35.1191C156.079 34.4578 156.122 33.7645 156.25 33.0391C156.399 32.3138 156.612 31.6205 156.89 30.9591C157.188 30.2765 157.54 29.6578 157.946 29.1031C158.372 28.5271 158.852 28.0578 159.386 27.6951Z" fill="white"/>
<path d="M201.682 7.82315C201.255 8.18581 200.829 8.55915 200.402 8.94315C199.997 9.32715 199.591 9.71115 199.186 10.0951C200.21 10.0525 201.095 10.0311 201.842 10.0311C202.589 10.0098 203.047 10.0205 203.218 10.0631C203.623 10.1698 203.783 10.3831 203.698 10.7031C203.634 11.0231 203.442 11.3538 203.122 11.6951C202.823 12.0365 202.461 12.3458 202.034 12.6231C201.629 12.9005 201.287 13.0498 201.01 13.0711L195.858 13.3911C193.49 15.8658 191.303 18.4045 189.298 21.0071C187.314 23.6098 185.575 26.0845 184.082 28.4311C182.589 30.7565 181.394 32.8578 180.498 34.7351C179.602 36.5911 179.069 38.0205 178.898 39.0231C178.791 39.6418 178.727 40.0791 178.706 40.3351C178.706 40.5911 178.749 40.7405 178.834 40.7831C178.919 40.8045 179.037 40.7511 179.186 40.6231C179.357 40.4951 179.559 40.3351 179.794 40.1431C180.349 39.7165 180.989 39.1831 181.714 38.5431C182.461 37.8818 183.197 37.1991 183.922 36.4951C184.647 35.7911 185.33 35.0978 185.97 34.4151C186.61 33.7111 187.122 33.0818 187.506 32.5271C187.762 32.1645 188.029 31.9725 188.306 31.9512C188.583 31.9298 188.807 32.0365 188.978 32.2712C189.149 32.4845 189.245 32.8151 189.266 33.2631C189.287 33.7111 189.17 34.2125 188.914 34.7671C188.85 34.9378 188.615 35.3111 188.21 35.8871C187.826 36.4418 187.325 37.0925 186.706 37.8391C186.087 38.5858 185.383 39.3645 184.594 40.1751C183.826 40.9645 183.005 41.6685 182.13 42.2871C181.277 42.9058 180.402 43.3858 179.506 43.7271C178.61 44.0685 177.757 44.1431 176.946 43.9511C176.327 43.8231 175.911 43.5138 175.698 43.0231C175.463 42.5111 175.314 41.8925 175.25 41.1671C175.165 40.0151 175.314 38.7245 175.698 37.2951C176.082 35.8658 176.637 34.3618 177.362 32.7831C178.109 31.2045 178.994 29.5725 180.018 27.8871C181.042 26.2018 182.13 24.5378 183.282 22.8951C184.455 21.2525 185.661 19.6525 186.898 18.0951C188.135 16.5165 189.351 15.0445 190.546 13.6791C189.757 13.7218 189.01 13.7645 188.306 13.8071C187.602 13.8498 186.973 13.8925 186.418 13.9351C185.863 13.9565 185.405 13.9778 185.042 13.9991C184.701 13.9991 184.498 13.9991 184.434 13.9991C184.263 13.9991 184.167 13.8498 184.146 13.5511C184.146 13.2311 184.221 12.8791 184.37 12.4951C184.541 12.0898 184.797 11.7165 185.138 11.3751C185.479 11.0338 185.917 10.8311 186.45 10.7671C186.578 10.7458 186.866 10.7245 187.314 10.7031C187.762 10.6605 188.306 10.6285 188.946 10.6071C189.586 10.5645 190.301 10.5218 191.09 10.4791C191.901 10.4151 192.743 10.3618 193.618 10.3191C194.855 9.03915 195.943 7.99382 196.882 7.18315C197.821 6.37248 198.514 5.88181 198.962 5.71115C199.666 5.45515 200.285 5.34848 200.818 5.39115C201.351 5.43381 201.757 5.57248 202.034 5.80715C202.311 6.04181 202.429 6.34048 202.386 6.70315C202.365 7.06581 202.13 7.43915 201.682 7.82315Z" fill="white"/>
<path d="M201.354 27.6951C201.76 27.4178 202.261 27.3005 202.858 27.3431C203.456 27.3645 204 27.5032 204.49 27.7591C204.981 27.9938 205.354 28.3138 205.61 28.7191C205.866 29.1245 205.866 29.5405 205.61 29.9671C205.525 30.0951 205.376 30.3298 205.162 30.6711C204.949 31.0125 204.693 31.4072 204.394 31.8552C204.117 32.3032 203.829 32.7831 203.53 33.2951C203.253 33.7858 203.008 34.2445 202.794 34.6711C202.602 35.0765 202.464 35.4285 202.378 35.7271C202.293 36.0045 202.314 36.1645 202.442 36.2071C202.89 36.3351 203.413 36.3031 204.01 36.1111C204.608 35.9191 205.216 35.6205 205.834 35.2151C206.474 34.7885 207.093 34.2871 207.69 33.7111C208.288 33.1138 208.81 32.4845 209.258 31.8231C209.45 31.5458 209.674 31.4391 209.93 31.5031C210.208 31.5458 210.442 31.6952 210.634 31.9512C210.826 32.1858 210.954 32.4951 211.018 32.8791C211.082 33.2631 211.008 33.6471 210.794 34.0311C210.474 34.6071 209.952 35.2578 209.226 35.9831C208.522 36.6871 207.701 37.3271 206.762 37.9031C205.845 38.4578 204.842 38.8738 203.754 39.1511C202.688 39.4071 201.642 39.3645 200.618 39.0231C200.17 38.8738 199.765 38.6498 199.402 38.3511C198.805 39.0338 198.165 39.6951 197.482 40.3351C196.821 40.9751 196.138 41.5511 195.434 42.0631C194.73 42.5751 194.005 43.0018 193.258 43.3431C192.512 43.6631 191.754 43.8658 190.986 43.9511C190.73 43.9725 190.4 43.9938 189.994 44.0151C189.61 44.0151 189.194 43.9725 188.746 43.8871C188.298 43.7805 187.85 43.6098 187.402 43.3751C186.976 43.1405 186.592 42.7991 186.25 42.3511C185.93 41.9031 185.685 41.3271 185.514 40.6231C185.344 39.8978 185.301 39.0018 185.386 37.9351C185.45 37.0605 185.696 36.0685 186.122 34.9591C186.549 33.8285 187.114 32.6765 187.818 31.5031C188.522 30.3298 189.333 29.1778 190.25 28.0471C191.189 26.9165 192.202 25.9032 193.29 25.0072C194.378 24.1112 195.52 23.3751 196.714 22.7991C197.93 22.2231 199.168 21.9031 200.426 21.8391C201.301 21.7965 202.048 21.8498 202.666 21.9991C203.306 22.1485 203.829 22.3511 204.234 22.6071C204.64 22.8631 204.938 23.1618 205.13 23.5031C205.344 23.8445 205.461 24.1858 205.482 24.5271C205.504 24.9111 205.44 25.2738 205.29 25.6151C205.162 25.9565 204.992 26.2445 204.778 26.4792C204.565 26.7138 204.341 26.8631 204.106 26.9271C203.893 26.9911 203.722 26.9378 203.594 26.7671C203.168 26.1911 202.624 25.8178 201.962 25.6472C201.301 25.4551 200.629 25.4445 199.946 25.6151C198.773 25.9138 197.685 26.3938 196.682 27.0551C195.701 27.6951 194.805 28.4311 193.994 29.2631C193.205 30.0951 192.501 30.9698 191.882 31.8871C191.264 32.8045 190.741 33.6898 190.314 34.5431C189.909 35.3965 189.589 36.1645 189.354 36.8471C189.12 37.5298 188.992 38.0525 188.97 38.4151C188.928 38.9271 188.97 39.3431 189.098 39.6631C189.248 39.9831 189.429 40.2391 189.642 40.4311C189.877 40.6018 190.122 40.7191 190.378 40.7831C190.634 40.8471 190.858 40.8791 191.05 40.8791C191.541 40.8578 192.074 40.6871 192.65 40.3671C193.248 40.0258 193.845 39.5885 194.442 39.0551C195.061 38.5005 195.68 37.8818 196.298 37.1991C196.917 36.5165 197.514 35.8231 198.09 35.1191C198.048 34.4578 198.09 33.7645 198.218 33.0391C198.368 32.3138 198.581 31.6205 198.858 30.9591C199.157 30.2765 199.509 29.6578 199.914 29.1031C200.341 28.5271 200.821 28.0578 201.354 27.6951Z" fill="white"/>
</svg>
