<svg width="2447" height="1096" viewBox="0 0 2447 1096" fill="none" xmlns="http://www.w3.org/2000/svg">
<g clip-path="url(#clip0_46_3)">
<mask id="mask0_46_3" style="mask-type:luminance" maskUnits="userSpaceOnUse" x="0" y="0" width="2447" height="1096">
<path d="M2447 0H0V1096H2447V0Z" fill="white"/>
</mask>
<g mask="url(#mask0_46_3)">
<path fill-rule="evenodd" clip-rule="evenodd" d="M-117 46.0093C-139.4 47.6093 -167.833 37.8333 -173 33V163.009V244.009V1096.01H2666V163.009H2661.03C2668.02 83.6096 2670.92 0.591665 2652.5 19.0093C2627.3 44.2093 2594.67 50.8426 2581.5 49.0093C2559.63 49.0093 2544.97 39.8205 2528.45 29.4707C2508.42 16.9164 2485.66 2.65363 2444 1.00926C2409.56 1.00926 2393.95 12.2578 2378.43 23.444C2363.08 34.5071 2347.81 45.5093 2314.5 45.5093C2281.89 45.5093 2266.1 35.2034 2249.89 24.6243C2232.8 13.4687 2215.24 2.00926 2177 2.00926C2137.34 2.00926 2118.65 14.9029 2101.17 26.9628C2085.82 37.5578 2071.39 47.5093 2044.5 47.5093C2016.29 47.5093 1997.23 36.318 1977.81 24.916C1957.64 13.0763 1937.08 1.00926 1905.5 1.00926C1872.68 1.00926 1849.95 13.7603 1828.55 25.7622C1809.53 36.4318 1791.56 46.5093 1768.5 46.5093C1745.25 46.5093 1728.19 36.7945 1710.01 26.4399C1689.86 14.9691 1668.34 2.71299 1635.5 2.00926C1598.33 1.21285 1578.22 13.8069 1559.08 25.7967C1542.16 36.3888 1526 46.5093 1499.5 46.5093C1479.81 46.5093 1460.37 36.4195 1439.61 25.6387C1416.19 13.4815 1391.08 0.445566 1362 0.00926463C1336.46 -0.373821 1315 11.1871 1293.36 22.8414C1273.49 33.548 1253.46 44.3334 1230 46.0093C1222.15 46.5699 1215.1 45.7963 1209.02 44.3467C1199.35 40.6889 1190.69 35.2616 1181.45 29.4707C1161.42 16.9164 1138.66 2.65363 1097 1.00926C1062.56 1.00926 1046.95 12.2578 1031.43 23.444C1016.08 34.5071 1000.81 45.5093 967.5 45.5093C934.888 45.5093 919.098 35.2034 902.889 24.6243C885.796 13.4687 868.238 2.00926 830 2.00926C790.341 2.00926 771.652 14.9029 754.172 26.9628C738.815 37.5578 724.391 47.5093 697.5 47.5093C669.292 47.5093 650.229 36.318 630.806 24.916C610.639 13.0763 590.084 1.00926 558.5 1.00926C525.678 1.00926 502.946 13.7603 481.549 25.7622C462.527 36.4318 444.56 46.5093 421.5 46.5093C398.253 46.5093 381.193 36.7945 363.009 26.4399C342.864 14.9691 321.341 2.71299 288.5 2.00926C251.334 1.21285 231.223 13.8069 212.077 25.7967C195.162 36.3888 179.001 46.5093 152.5 46.5093C132.806 46.5093 113.372 36.4195 92.6071 25.6387C69.191 13.4815 44.0826 0.445566 15 0.00926463C-10.5355 -0.373821 -31.9994 11.1871 -53.6366 22.8414C-73.5143 33.548 -93.5384 44.3334 -117 46.0093Z" fill="#B2D5E6"/>
<path fill-rule="evenodd" clip-rule="evenodd" d="M-117 46.0093C-139.4 47.6093 -155.333 38.3426 -160.5 33.5093L-168.19 163.009H-173V244.009V1096.01H2666V163.009H2661.03C2668.02 83.6096 2670.92 0.591667 2652.5 19.0093C2627.3 44.2093 2594.67 50.8426 2581.5 49.0093C2559.63 49.0093 2544.97 39.8206 2528.45 29.4707C2508.42 16.9164 2485.66 2.65363 2444 1.00926C2409.56 1.00926 2393.95 12.2578 2378.43 23.444C2363.08 34.5071 2347.81 45.5093 2314.5 45.5093C2281.89 45.5093 2266.1 35.2034 2249.89 24.6243C2232.8 13.4687 2215.24 2.00926 2177 2.00926C2137.34 2.00926 2118.65 14.9029 2101.17 26.9628C2085.82 37.5578 2071.39 47.5093 2044.5 47.5093C2016.29 47.5093 1997.23 36.3181 1977.81 24.9161C1957.64 13.0763 1937.08 1.00926 1905.5 1.00926C1872.68 1.00926 1849.95 13.7603 1828.55 25.7622C1809.53 36.4318 1791.56 46.5093 1768.5 46.5093C1745.25 46.5093 1728.19 36.7945 1710.01 26.4399C1689.86 14.9691 1668.34 2.71299 1635.5 2.00926C1598.33 1.21285 1578.22 13.8069 1559.08 25.7967C1542.16 36.3888 1526 46.5093 1499.5 46.5093C1479.81 46.5093 1460.37 36.4195 1439.61 25.6387C1416.19 13.4815 1391.08 0.445565 1362 0.00926463C1336.46 -0.373821 1315 11.1871 1293.36 22.8414C1273.49 33.548 1253.46 44.3334 1230 46.0093C1222.15 46.5699 1215.1 45.7963 1209.02 44.3467C1199.35 40.6889 1190.69 35.2616 1181.45 29.4707C1161.42 16.9164 1138.66 2.65363 1097 1.00926C1062.56 1.00926 1046.95 12.2578 1031.43 23.444C1016.08 34.5071 1000.81 45.5093 967.5 45.5093C934.888 45.5093 919.098 35.2034 902.889 24.6243C885.796 13.4687 868.238 2.00926 830 2.00926C790.341 2.00926 771.652 14.9029 754.172 26.9628C738.815 37.5578 724.391 47.5093 697.5 47.5093C669.292 47.5093 650.229 36.3181 630.806 24.9161C610.639 13.0763 590.084 1.00926 558.5 1.00926C525.678 1.00926 502.946 13.7603 481.549 25.7622C462.527 36.4318 444.56 46.5093 421.5 46.5093C398.253 46.5093 381.193 36.7945 363.009 26.4399C342.864 14.9691 321.341 2.71299 288.5 2.00926C251.334 1.21285 231.223 13.8069 212.077 25.7967C195.162 36.3888 179.001 46.5093 152.5 46.5093C132.806 46.5093 113.372 36.4195 92.6071 25.6387C69.191 13.4815 44.0826 0.445565 15 0.00926463C-10.5355 -0.373821 -31.9994 11.1871 -53.6366 22.8414C-73.5143 33.548 -93.5384 44.3334 -117 46.0093Z" fill="#193C4D"/>
</g>
</g>
<defs>
<clipPath id="clip0_46_3">
<rect width="2447" height="1096" fill="white"/>
</clipPath>
</defs>
</svg>
