<svg width="1440" height="1898" viewBox="0 0 1440 1898" fill="none" xmlns="http://www.w3.org/2000/svg">
<path fill-rule="evenodd" clip-rule="evenodd" d="M-187 47C-209.4 48.6 -225.333 39.3333 -230.5 34.5L-243 245H0V1898H1440V245H2582.5C2593 159.5 2607.7 -5.20001 2582.5 20C2557.3 45.2 2524.67 51.8333 2511.5 50C2489.63 50 2474.97 40.8113 2458.45 30.4614C2438.42 17.9071 2415.66 3.64435 2374 1.99999C2339.56 1.99999 2323.95 13.2485 2308.43 24.4347C2293.08 35.4978 2277.81 46.5 2244.5 46.5C2211.89 46.5 2196.1 36.1942 2179.89 25.615C2162.8 14.4595 2145.24 2.99999 2107 2.99999C2067.34 2.99999 2048.65 15.8936 2031.17 27.9535C2015.82 38.5485 2001.39 48.5 1974.5 48.5C1946.29 48.5 1927.23 37.3088 1907.81 25.9068C1887.64 14.067 1867.08 1.99999 1835.5 1.99999C1802.68 1.99999 1779.95 14.7511 1758.55 26.7529C1739.53 37.4225 1721.56 47.5 1698.5 47.5C1675.25 47.5 1658.19 37.7852 1640.01 27.4306C1619.86 15.9598 1598.34 3.70371 1565.5 2.99999C1528.33 2.20357 1508.22 14.7977 1489.08 26.7875C1472.16 37.3795 1456 47.5 1429.5 47.5C1409.81 47.5 1390.37 37.4102 1369.61 26.6294C1346.19 14.4722 1321.08 1.43629 1292 0.999987C1266.46 0.616901 1245 12.1778 1223.36 23.8321C1203.49 34.5388 1183.46 45.3242 1160 47C1152.15 47.5606 1145.1 46.787 1139.02 45.3375C1129.35 41.6797 1120.69 36.2523 1111.45 30.4614C1091.42 17.9071 1068.66 3.64435 1027 1.99999C992.56 1.99999 976.953 13.2485 961.431 24.4347C946.081 35.4978 930.815 46.5 897.5 46.5C864.888 46.5 849.098 36.1942 832.889 25.615C815.796 14.4595 798.238 2.99999 760 2.99999C720.341 2.99999 701.652 15.8936 684.172 27.9535C668.815 38.5485 654.391 48.5 627.5 48.5C599.292 48.5 580.229 37.3088 560.806 25.9068C540.639 14.067 520.084 1.99999 488.5 1.99999C455.678 1.99999 432.946 14.7511 411.549 26.7529C392.527 37.4225 374.56 47.5 351.5 47.5C328.253 47.5 311.193 37.7852 293.009 27.4307C272.864 15.9598 251.341 3.70371 218.5 2.99999C181.334 2.20357 161.223 14.7977 142.077 26.7875C125.162 37.3795 109.001 47.5 82.5 47.5C62.8057 47.5 43.3718 37.4102 22.6071 26.6294C-0.80896 14.4722 -25.9174 1.43629 -55 0.999987C-80.5355 0.616901 -101.999 12.1778 -123.637 23.8321C-143.514 34.5388 -163.538 45.3242 -187 47Z" fill="#003963"/>
</svg>
