<svg width="1353" height="153" viewBox="0 0 1353 153" fill="none" xmlns="http://www.w3.org/2000/svg">
<g clip-path="url(#clip0_71_3)">
<path d="M-79.9893 28.7646C-93.9936 29.7649 -103.955 23.9714 -107.185 20.9497L-115 152.552H809.345C815.909 99.0986 825.1 -3.87039 809.345 11.8844C793.59 27.6392 773.188 31.7863 764.956 30.6402C734.697 30.6402 726.507 2.50656 678.993 0.630983C636.167 0.630983 639.918 28.452 598.03 28.452C556.143 28.452 558.643 1.25617 512.067 1.25617C465.49 1.25617 465.177 29.7024 429.229 29.7024C393.28 29.7024 381.089 0.630983 342.327 0.630983C303.565 0.630983 287.31 29.0772 256.676 29.0772C226.042 29.0772 212.591 2.09328 173.526 1.25617C129.762 0.318396 123.823 29.0772 88.4997 29.0772C62.3022 29.0772 36.8417 0.52045 2.53591 0.00579186C-28.095 -0.453736 -49.3549 26.5764 -79.9893 28.7646Z" fill="#003963"/>
<path d="M593.967 28.7646C579.962 29.7649 570.001 23.9714 566.771 20.9497L558.956 152.552H1483.3C1489.87 99.0986 1499.06 -3.87039 1483.3 11.8844C1467.55 27.6392 1447.14 31.7863 1438.91 30.6402C1408.65 30.6402 1400.46 2.50656 1352.95 0.630983C1310.12 0.630983 1313.87 28.452 1271.99 28.452C1230.1 28.452 1232.6 1.25617 1186.02 1.25617C1139.45 1.25617 1139.13 29.7024 1103.18 29.7024C1067.24 29.7024 1055.05 0.630983 1016.28 0.630983C977.521 0.630983 961.266 29.0772 930.632 29.0772C899.998 29.0772 886.547 2.09328 847.482 1.25617C803.718 0.318396 797.779 29.0772 762.456 29.0772C736.258 29.0772 710.798 0.52045 676.492 0.00579186C645.861 -0.453736 624.601 26.5764 593.967 28.7646Z" fill="#003963"/>
</g>
<defs>
<clipPath id="clip0_71_3">
<rect width="1353" height="153" fill="white"/>
</clipPath>
</defs>
</svg>
